<svg xmlns="http://www.w3.org/2000/svg" xmlns:xlink="http://www.w3.org/1999/xlink" viewBox="0,0,256,256" width="128px" height="128px" fill-rule="nonzero"><g fill="#33a8ff" fill-rule="nonzero" stroke="none" stroke-width="1" stroke-linecap="butt" stroke-linejoin="miter" stroke-miterlimit="10" stroke-dasharray="" stroke-dashoffset="0" font-family="none" font-weight="none" font-size="none" text-anchor="none" style="mix-blend-mode: normal"><g transform="scale(8,8)"><path d="M12.9707,3c-0.18741,0.00563 -0.36947,0.06384 -0.52539,0.16797l-9,6c-0.27818,0.18547 -0.44529,0.49769 -0.44531,0.83203v15c0.00108,0.44534 0.2965,0.83631 0.72461,0.95898v0.00195c0.00325,0.00067 0.00651,0.00132 0.00977,0.00195l13.99023,3.99805c0.29021,0.08314 0.60244,0.03074 0.84961,-0.14258l10,-7c0.26677,-0.18713 0.42565,-0.4925 0.42578,-0.81836v-15c-0.00017,-0.47687 -0.33701,-0.88729 -0.80469,-0.98047l-0.02539,-0.00586c-0.00325,-0.00067 -0.00651,-0.00132 -0.00977,-0.00195l-14.89258,-2.97656c-0.01939,-0.00514 -0.03893,-0.0097 -0.05859,-0.01367l-0.01367,-0.00195c-0.07389,-0.01496 -0.14924,-0.02151 -0.22461,-0.01953zM14,5.21875l11.26953,2.25391l-7.44336,4.4668l-3.82617,-0.82031zM12,5.86914v4.82227l-5.47461,-1.17383zM27,8.76563v11.93164l-8,-2.13281v-4.99805zM5,11.23828l7,1.5v4.77344l-7,5.44531zM14,13.16602l3,0.64258v4.22266l-3,-0.80078zM13.2207,19.09375l3.7793,1.00781v7.57227l-10.83203,-3.09375zM19,20.63477l6.66797,1.7793l-6.66797,4.66602z"></path></g></g></svg>