<svg width="240" height="240" viewBox="0 0 240 240" fill="none" xmlns="http://www.w3.org/2000/svg">
<rect width="240" height="240" fill="#212121"/>
<path d="M219.91 118.175C220.255 96.87 215.455 71.535 205.455 41.81L197.615 18.5L186.965 40.665C186.395 41.85 185.745 43.01 185.065 44.155C167.57 29.135 144.87 20 120 20C64.77 20 20 64.77 20 120C20 175.23 64.77 220 120 220C175.23 220 220 175.23 220 120C220 119.385 219.92 118.79 219.91 118.175Z" fill="#33A8FF"/>
<path d="M196.925 162.79C181.31 184.3 153.67 185.455 127.655 185H93.75H84.06C106.2 177.035 119.375 175.14 132.83 168C158.17 154.675 183.22 125.52 188.435 95.19C178.785 124.37 149.54 149.44 122.89 159.635C104.63 166.6 71.65 173.36 71.65 173.36L70.315 172.635C47.865 161.34 47.185 111.07 88 94.84C105.87 87.725 122.965 91.635 142.27 86.875C162.88 81.815 186.72 65.835 196.42 45C207.28 78.335 220.35 130.53 196.925 162.79ZM78.34 192.225C76.93 193.975 74.775 195 72.525 195C68.41 195 65.05 191.615 65.05 187.5C65.05 183.385 68.435 180 72.525 180C74.23 180 75.91 180.59 77.23 181.68C80.43 184.275 80.93 189.025 78.34 192.225Z" fill="#212121"/>
</svg>
