<svg xmlns="http://www.w3.org/2000/svg" version="1.1" xmlns:xlink="http://www.w3.org/1999/xlink" xmlns:svgjs="http://svgjs.com/svgjs" width="512" height="512" x="0" y="0" viewBox="0 0 512 512" style="enable-background:new 0 0 512 512" xml:space="preserve" class=""><g><path d="M512 256c0 87.792-44.189 165.261-111.543 211.372a251.109 251.109 0 0 1-8.349 5.486C352.684 497.654 306.019 512 256 512c-47.95 0-92.818-13.176-131.176-36.122a248.794 248.794 0 0 1-9.394-5.883C45.902 424.218 0 345.475 0 256 0 114.615 114.615 0 256 0s256 114.615 256 256z" style="" fill="#212121" data-original="#212121" class="" opacity="1"></path><path d="M420.091 174.401c1.392-.481 1.822-1.296 1.87-2.591.239-3.548.528-7.146.863-10.695.385-4.844.816-9.688 1.248-14.821-.385.095-.624.143-.815.191-28.346 8.299-58.66 16.068-87.006 24.317-1.44.433-.096 2.687.479 3.694 4.461 7.818 9.21 15.013 13.573 22.879.385.671.72 1.006 1.199 1.102.239 0 1.007-.624 1.296-.72 22.4-7.818 44.846-15.635 67.293-23.356zM117.732 208.789c4.509.624 8.968 1.248 13.477 1.87 6.907.958 13.815 1.869 20.721 2.829.124.037.254.053.385.048.815-.048.958-.767 1.15-1.487a1324.585 1324.585 0 0 1 5.563-18.226c.433-1.294.048-1.678-1.2-2.014-12.901-3.357-25.804-6.764-38.706-10.168a44377.194 44377.194 0 0 1-38.658-10.217 2.646 2.646 0 0 0-.767-.143c-.385 0-.624.096-.768.385-.047.095-.095.191-.095.287a2.36 2.36 0 0 0-.096.624c-.952 9.52-1.975 19.033-3.07 28.537-.143 1.2.096 1.726 1.007 1.968.191.048.43.095.72.143 13.429 1.872 26.906 3.694 40.337 5.564z" style="" fill="#33a8ff" data-original="#6399d4" class="" opacity="1"></path><path d="m217.926 369.658-4.007 11.764-2.306 6.342.558 7.89-7.765 12.576 4.037 8.36v8.936l11.818 4.036 2.306-4.612 17.296-9.225 14.701-5.477 3.948-3.658 8.448 2.794 9.801-1.73 40.646 15.566 1.729-8.36v-11.242l3.17-6.342-10.563-24.261" style="" fill="#33a8ff" data-original="#df352e" class="" opacity="1"></path><path d="M136.261 60.785c1.076 1.393 2.155 2.789 3.225 4.186l.022.027c.29.363.972 1.211 2.126 1.211a2.55 2.55 0 0 0 1.258-.35c1.089-.591 2.252-1.131 3.376-1.651 2.227-1.031 4.53-2.098 6.618-3.716 8.033-6.366 15.091-12.415 21.577-18.495 1.156-1.057 2.425-2.514 2.124-4.467.004-.17.015-.343.026-.522.06-.936.159-2.504-1.443-3.383a2.528 2.528 0 0 0-1.241-.334c-.926 0-1.567.532-1.95.851a4.14 4.14 0 0 1-.235.186c-.471.226-.892.495-1.3.757-.287.184-.56.358-.807.49-2.159 1.124-4.312 2.32-6.394 3.475-4.568 2.535-9.292 5.157-14.223 7.103-1.686.658-3.385 1.343-5.029 2.004-3.259 1.312-6.628 2.669-10.012 3.871-.038.011-.125.031-.184.046-.508.119-1.563.368-1.933 1.438-.252.729-.057 1.506.579 2.308a957.773 957.773 0 0 0 3.82 4.965zM159.144 61.315l-.023-.052-.026-.05c-.213-.406-.861-1.643-2.278-1.643-.588 0-1.117.227-1.551.434-2.213 1.021-4.041 2.514-5.809 3.958-1.425 1.165-2.772 2.265-4.266 3.093-.745.411-1.187.964-1.314 1.645-.194 1.039.453 1.812.84 2.275l.037.044 10.804 12.389c.1.117.213.328.305.497.062.115.119.219.17.304l.684 1.134 1.223-.509c.209-.087.365-.147.484-.193.236-.091.441-.17.657-.309.86-.526 1.708-1.051 2.556-1.577.845-.523 1.691-1.048 2.547-1.572.662-.392 1.651-1.314.988-3.141-.708-1.94-1.384-3.949-2.038-5.89-1.203-3.581-2.449-7.283-3.99-10.837zM140.597 94.577c.486-.28.983-.567 1.495-.86l2.169-1.239-2.085-1.378a405.017 405.017 0 0 0-3.985-2.592c-4.475-2.888-8.702-5.615-12.658-8.955l-1.896-1.601-.589 2.411c-.489 2-.862 3.544-1.191 5.083-.16-.061-.446-.421-.66-.691a9.746 9.746 0 0 0-.523-.621l-.037-.039-.039-.036c-.391-.363-.544-.721-.54-.816.764-1.658 1.335-3.391 1.889-5.066.349-1.055.678-2.052 1.051-3.032.103-.258.232-.58.353-.859.256.184.53.394.694.519l.026.02c.153.115.274.207.378.31 5.418 5.621 11.198 9.937 17.669 13.196 2.073 1.052 3.699 1.521 5.269 1.521 1.842 0 3.54-.672 5.188-2.055.031-.019.083-.048.123-.07.115-.064.253-.14.4-.242 1.115-.674 1.496-1.922.928-3.072-.157-.327-.29-.701-.432-1.095-.379-1.062-.809-2.264-1.903-3.222l-.018-.015c-3.458-2.937-6.753-6.184-9.938-9.323-.415-.411-.832-.821-1.249-1.232-4.119-4.057-8.378-8.254-11.433-13.218-1.251-1.989-2.468-3.529-3.837-4.85-1.155-1.102-2.625-1.708-4.14-1.708-2.099 0-3.947 1.143-4.946 3.058-1.38 2.562-3.042 5.041-4.649 7.437-1.477 2.205-3.006 4.484-4.354 6.878-1.239 2.223-2.655 4.421-4.026 6.547-1.955 3.035-3.978 6.173-5.612 9.558-.708 1.481-.732 2.901-.082 4.463.399.971.833 1.927 1.253 2.853.759 1.673 1.486 3.278 2.02 4.942l-.791-1.302c-1.36-2.236-2.766-4.547-4.03-6.909-1.812-3.299-3.569-6.712-5.269-10.015-4.066-7.898-8.27-16.066-13.634-23.48l-.009-.013c-.023-.045-.061-.137-.088-.2-.203-.479-.742-1.751-2.18-1.751-.373 0-.758.097-1.144.29-2.315 1.16-2.35 2.953-2.166 3.913.264 1.403.494 2.854.716 4.256.421 2.664.858 5.42 1.564 8.084 3.891 14.703 8.694 29.356 13.338 43.526.823 2.513 1.647 5.026 2.465 7.536.176.545.711 2.204 2.376 2.204.676 0 1.239-.288 1.906-.665a19613.804 19613.804 0 0 1 42.712-24.065c1.382-.721 2.727-1.497 4.151-2.318zM164.878 131.007c1.188-1.337 2.416-2.72 3.186-4.533 3.397-7.798 7.954-14.992 12.361-21.95 5.559-8.79 11.235-15.828 17.344-21.513 2.277-2.093 3.151-4.599 3.662-6.555.671-2.621-.654-4.793-2.118-5.952l-.018-.014c-1.048-.805-2.229-1.231-3.414-1.231-1.098 0-2.149.356-3.123 1.061l-.026.019c-6.252 4.721-13.197 7.856-20.549 11.174-.969.438-1.937.875-2.917 1.322-.443.207-.899.411-1.357.615-3.326 1.488-7.082 3.168-9.014 7.177a4.083 4.083 0 0 0-.173.097l-.037.023c-2.698 1.717-5.743 2.536-8.096 3.057a2.81 2.81 0 0 1-.538.033h-.161c-.552 0-1.475 0-2.42.597a11662.847 11662.847 0 0 1-51.602 32.084c-1.709 1.057-2.107 2.384-1.25 4.176.729 1.525 1.458 3.09 2.161 4.604 2.354 5.063 4.789 10.296 7.801 15.181.375.801.295 1.025-.036 1.479-3.687 5.071-5.126 11.05-6.165 16.292-.322.601-.854 1.813-.271 2.954.436.853 1.328 1.359 2.652 1.507.643.086 1.308.25 2.012.423.363.089.737.182 1.116.264a746.085 746.085 0 0 0 26.401 6.627c.544.274 1.313.582 2.212.582.31 0 .624-.037.93-.109l.093-.022.09-.033c.621-.232 1.357-.789 1.337-2.13l-.001-.076 5.445-18.197c.072-.219.131-.432.187-.636.156-.568.263-.927.473-1.094 2.72-2.021 4.158-4.886 4.396-8.758l.002-.032c.02-.505.137-1.049.261-1.624.126-.586.257-1.193.31-1.852.1-1.052.4-1.498 1.277-1.908 6.809-3.177 12.724-7.597 17.577-13.129zM354.376 302.119l-.03-.01-.03-.009a10.887 10.887 0 0 0-3.242-.502c-.487 0-.943.056-1.323.111l-.073.01-.078.02c-.033.007-.067.01-.099.015-.139.019-.329.044-.544.115-.214.072-.362.15-.499.232l-.206.1-.388.388-.085.128c-.568.853-.267 1.736-.106 2.209.017.05.04.115.056.169-.084.374-.098.729-.111 1.023a3.66 3.66 0 0 1-.038.474c-.19.569-.366 1.039-.562 1.509-.319.75-.67 1.499-1.044 2.226-.912 1.65-2.066 3.279-3.495 4.932.069-.424.196-.867.383-1.341l.039-.098.014-.055.039-.072a4.62 4.62 0 0 0 .091-.174l.015-.028.013-.029c.344-.758.774-1.497 1.23-2.281.129-.22.257-.441.381-.659.044-.077.13-.188.219-.305.126-.164.268-.348.401-.567.03-.045.057-.088.08-.13l.024-.024.121-.283c.173-.403.23-.84.165-1.271-.148-1.783-1.95-3.996-3.481-5.377-.61-.544-1.139-.937-1.62-1.205-.678-.376-1.226-.585-1.721-.655-.67-.103-1.27-.154-1.916-.204l-.038-.003c-1.575-.134-3.203-.273-4.615-.697l-.438-.146a82.723 82.723 0 0 1-7.441-2.731 52.775 52.775 0 0 1-2.377-1.072l-.028-.014a58.769 58.769 0 0 1-9.113-5.187 473.81 473.81 0 0 0-2.457-1.696 310.125 310.125 0 0 1-4.111-2.859c-.415-.29-.834-.581-1.254-.872a139.273 139.273 0 0 1-3.083-2.179l-.019-.014a122.777 122.777 0 0 1-6.301-4.785l-.048-.04-.056-.039c-.032-.023-.064-.051-.096-.078-.075-.062-.164-.137-.27-.212a8.702 8.702 0 0 0-.509-.373 5.37 5.37 0 0 1-.348-.254l-.044-.037-.277-.196a8.806 8.806 0 0 1-.587-.437l-.047-.038c-.417-.323-.688-.588-.871-.851a12.515 12.515 0 0 0-.647-.863 8.332 8.332 0 0 1-.243-.325c-.106-.144-.213-.294-.328-.436a110.99 110.99 0 0 0-1.649-2.005c-2.344-2.807-4.557-5.458-5.559-8.928l-1.174-4.067-1.709 3.873c-1.637 3.711-3.395 6.76-5.361 9.308-.722.912-1.68 2.095-2.681 3.147-3.874 4.006-8.549 6.804-13.906 8.322a37.676 37.676 0 0 1-6.997 1.316c.278-.24.564-.493.857-.785 1.045-.937 2.179-1.848 3.275-2.73 2.312-1.859 4.701-3.779 6.652-6.212l.23-.154.047-.032a2.479 2.479 0 0 0 1.014-1.769l.007-.073v-1.852h-1.537a1.68 1.68 0 0 0-.396.048h-.048l-.238.079c-.41.138-1.06.355-1.61.931-2.141 1.248-4.389 2.439-6.564 3.591-.566.3-1.134.601-1.701.904l-.023.013c-.205.114-.398.216-.592.319-.21.111-.42.223-.642.346-.709.378-1.38.736-2.089 1.046l-.036.016-.036.018a61.276 61.276 0 0 1-3.597 1.634c-5.776 2.403-11.961 3.98-18.394 4.688-3.579.43-7.224.77-10.751 1.1-3.566.333-7.184.623-10.741.859l-.197.012c-2.277.136-4.631.277-6.939.37-.206.001-.402.014-.593.026-.16.01-.31.02-.428.02-.392 0-.774.013-1.144.025-.341.012-.662.023-.967.023-.759 0-1.484.047-2.213.1-.751.05-1.474.148-2.272.306-.339.051-.657.133-.964.212l-.212.054c-6.539 1.688-12.241 3.78-17.447 6.407a80.388 80.388 0 0 0-4.453 2.496 37.591 37.591 0 0 0-2.883 1.938c-.464.324-.985.69-1.426 1.072-1.048.832-2.21 1.878-2.938 3.332-.103.208-.23.46-.319.758a2.311 2.311 0 0 0-.062.194l-.025.049-.042.168c-.027.107-.053.227-.08.347-.021.095-.042.19-.064.275l-.02.077-.011.079c-.064.444-.064.86-.064 1.226v.036l.002.034c.061 1.334.423 2.801 1.072 4.348 2.418 5.926 5.549 11.763 9.303 17.343a12.387 12.387 0 0 0 2.027 2.356l.096.087 2.846 1.811.109.048c1.65.722 3.553 1.089 5.654 1.089 1.912 0 2.563.409 3.171 1.996 2.423 6.196 6.781 11.425 12.954 15.54l.036.023c.129.08.257.167.388.255.259.174.553.372.883.555.387.214.725.424 1.128.677l.027.017.027.016c1.754 1.001 3.367 2.095 4.714 3.034.27.196.528.38.785.564.238.17.476.34.725.52a61.352 61.352 0 0 1 5.594 4.802c.146.146.298.293.451.441.296.285.575.554.828.835l.025.027.026.026c1.748 1.765 3.472 3.6 5.128 5.46.14.156.275.312.409.467.267.309.544.629.851.939.413.484.836.956 1.246 1.413.402.448.818.911 1.209 1.371l.014.016c2.24 2.561 3.995 4.892 5.361 7.128l.028.047.031.045c.126.178.25.402.381.639l.163.293a22.433 22.433 0 0 1 1.706 3.633l.017.044c1.195 3.047 3.385 4.932 5.165 6.234 1.071.816 2.221 1.515 3.334 2.192l.051.029c.28.156.555.311.83.467.569.323 1.158.656 1.791.99l.029.016c.581.29 1.143.616 1.739.962.606.351 1.232.714 1.893 1.045 1.161.609 2.164 1.025 3.158 1.309l.024.006.561.141c.154.045.284.067.375.082l.024.004.092.03.144.02c2.954.405 5.396.595 7.684.595 1.53 0 2.958-.084 4.371-.256l.28-.034c1.07-.133 2.177-.27 3.258-.449.981-.13 1.899-.289 2.868-.459l.34-.06c.122-.009.223-.028.292-.042h.048l.127-.022a80.347 80.347 0 0 0 3.313-.633 93.748 93.748 0 0 0 8.28-2.095 55.467 55.467 0 0 0 2.654-.835l.038-.013.037-.015a3.33 3.33 0 0 1 .497-.159l.099-.02.096-.032a51.004 51.004 0 0 0 2.483-.924c.178-.062.342-.13.488-.19.122-.051.236-.098.328-.13l.057-.02.056-.024c.152-.065.313-.13.475-.194.2-.08.399-.16.603-.248l1.316-.584a76.068 76.068 0 0 0 3.474-1.713l.028-.016a96.518 96.518 0 0 0 4.242-2.486l.042-.027c.718-.479 1.392-.96 2.044-1.425l.077-.055c2.015-1.486 3.73-2.989 5.244-4.599.752-.801 1.449-1.648 2.128-2.473l.02-.025c2.894-3.671 5.521-7.91 8.264-13.34.227-.428.438-.864.643-1.285.203-.418.395-.813.598-1.195l.016-.031c.631-1.261 1.215-2.576 1.781-3.846l.03-.07c.077-.18.155-.373.232-.565.067-.167.134-.334.201-.49l.018-.041.016-.042c.651-1.791 1.031-3.629 1.434-5.574.098-.471.196-.951.302-1.438l.609-2.825-2.683 1.074c-.27.108-.533.209-.792.308-.425.163-.864.332-1.306.521l-.503.216c-.811.351-1.576.682-2.34.949-.838.303-1.713.5-2.6.587l-.034.003-.034.005a3.33 3.33 0 0 1-.478.034l-.121-.001c-.688 0-.765-.131-.863-.442l.055-.022.057-.028c.027-.014.104-.032.231-.057l.077-.016.075-.023c.181-.055.36-.122.535-.199l.018-.007c.227-.091.46-.185.679-.29l.653-.261.451-.172c3.136-1.197 6.379-2.435 9.226-4.463 1.971-1.386 3.659-2.765 5.161-4.217.628-.58 1.277-1.179 1.888-1.84 3.004-3.17 5.167-6.445 6.611-10.009.065-.131.122-.265.171-.403.133-.296.303-.596.483-.912.22-.388.448-.789.648-1.248.068-.157.118-.204.117-.205a.588.588 0 0 1 .2-.023c.548 0 1.072-.075 1.535-.141.289-.042.564-.08.819-.099h1.195c5.022 0 8.149-3.297 10.777-6.853 1.858-2.494 3.062-5.448 4.028-7.821l.017-.042c.13-.345.253-.631.415-.956l.017-.034.016-.036c.647-1.479 1.452-3.318 1.565-5.376l.002-.042v-.064l.009-.091c.066-.564.25-2.286-1.355-2.867zm-48.922 19.791-.022-.004c-1.293-.222-2.577-.308-3.818-.393-.464-.031-.93-.064-1.397-.102-1.963-.166-4-.484-5.6-1.673-1.784-1.309-3.816-1.482-5.622-1.636l-.025-.002c-2.15-.148-3.977-1.21-5.91-2.335-.22-.129-.441-.256-.661-.383-.578-.346-.783-.859-.875-2.185l-.002-.03c-.156-1.745-.259-2.897-1.024-3.789-.769-.897-1.88-1.158-3.557-1.551-3.96-.946-7.08-2.985-9.283-6.078-1.062-1.454-1.743-3.322-1.97-5.415-.189-1.591-.302-3.286-.362-5.447.649.841 1.196 1.585 1.35 2.446l.004.02c.257 1.335.66 2.598 1.05 3.813 1.537 4.929 5.677 5.658 9.005 6.243.335.059.671.118 1.014.183 7.629 1.39 15.089 2.095 22.177 2.095 4.936 0 9.837-.341 14.585-1.012l-.308.114c-.79.292-1.606.594-2.385.874-5.794 1.996-11.495 3.818-17.524 4.188a9.262 9.262 0 0 1-.476.013c-1.32 0-2.654-.284-4.067-.586-.904-.193-1.839-.393-2.778-.516-.125-.018-.265-.046-.413-.075-.367-.073-.783-.157-1.273-.157-.333 0-.65.039-.968.118l-1.356.337.207 1.382c.305 2.035 1.522 3.749 3.627 5.102 2.169 1.368 4.767 2.826 8.158 2.826 4.608 0 9.284-.481 14.716-1.512 1.104-.196 2.006-.697 2.773-1.156a84.458 84.458 0 0 1 4.416-2.487c-2.723 2.504-5.782 5.119-9.443 8.083-.752.608-1.155.73-1.559.73a2.65 2.65 0 0 1-.404-.043zm-64.04 57.216c-.264 1.186-.514 2.306-.984 3.336l-.052-.077c-.692-.968-.843-2.164-1.018-3.547-.044-.35-.09-.711-.146-1.074.29-1.048.446-2.089.597-3.098.211-1.417.411-2.755.958-3.994 1.422-3.164 4.396-4.121 7.544-5.134.43-.139.859-.277 1.285-.421 4.175-1.422 8.753-2.217 13.602-2.365.172-.005.344-.007.515-.007 4.215 0 7.626 1.454 10.155 4.328-3.002-1.68-6.201-1.992-9.305-2.294a64.03 64.03 0 0 1-2.979-.337 5.603 5.603 0 0 0-2.776.331c-.632.246-1.265.49-1.898.735-2.784 1.075-5.662 2.187-8.461 3.408-2.078.886-5.009 2.678-6.486 7.99-.223.748-.39 1.496-.551 2.22zm33.763-26.989c-.438 0-.837.083-1.188.156l-.131.027c-4.619.781-8.955 2.51-13.359 4.363-1.287.54-2.52.815-3.664.815-1.58 0-3.024-.504-4.408-1.536-2.047-1.542-4.207-2.325-6.421-2.325-1.821 0-3.707.533-5.602 1.581-2.389 1.308-4.612 1.943-6.795 1.945-1.085 0-2.177-.163-3.251-.487-.312-.093-.635-.189-.77-.307l-.028-.024c-.054-.045-.142-.118-.241-.203l.235-.153.342-.218c.608-.387 1.237-.787 1.834-1.293l.045-.04c.497-.457.869-.548 1.307-.548.295 0 .65.047 1.097.145a6.745 6.745 0 0 0 1.516.172c1.649 0 3.389-.606 5.029-1.75 1.57-1.089 3.158-1.617 4.854-1.617 1.762 0 3.711.581 5.959 1.775.094.06.185.112.268.16l.099.056c1.569 1.264 3.464 2.536 5.666 2.536 1.722 0 3.335-.753 4.927-2.298.478-.46 1.504-.474 2.589-.491.597-.008 1.213-.018 1.831-.101.827-.114 1.68-.209 2.506-.302 3.303-.369 6.713-.75 9.916-2.424.21.33.435.632.638.906.522.702.845 1.16.88 1.692l.003.052s.011.086.014.1c-.173.075-.347.154-.52.231-.771.347-1.498.675-2.084.675-.262 0-.626-.059-1.122-.518a2.836 2.836 0 0 0-1.971-.752zm-74.421-35.771c-.127.046-.24.069-.345.069-.159 0-.432-.047-.957-.455a7.156 7.156 0 0 1-.146-.122l.11-.05c1.89-.848 3.996-1.351 5.852-1.795l.662-.159c.614.069 1.187.117 1.744.164 1.111.093 2.07.173 2.992.397 2.816.658 5.672.979 8.733.979 3.018 0 6.173-.316 9.637-.962 1.144-.206 2.646-.443 4.11-.443 1.403 0 2.643.212 3.788.65.25.099.485.163.693.22.096.026.232.064.308.091.053.048.108.094.162.139l-.402.053c-2.782.372-5.409.723-8.144.996-1.119.124-1.966.539-2.823.997-.467.256-.929.522-1.376.778-1.42.815-2.761 1.585-4.227 2.086-1.185.4-2.337.603-3.426.603-2.003 0-3.873-.693-5.56-2.06-2.319-1.948-4.795-2.934-7.362-2.934-1.305 0-2.66.255-4.023.758zm2.94-17.547c.071.001.166.009.266.019a5.9 5.9 0 0 0 .481.029c12.035.752 23.211 1.924 34.165 3.58.715.108 1.412.163 2.072.163 3.257 0 5.861-1.291 7.732-3.83.231-.308.464-.614.696-.922 1.216-1.605 2.473-3.265 3.524-5.072.152-.252.51-.847.752-1.067.156.088.375.357.236 1.432l-.003.024c-.641 5.623-3.095 9.848-7.519 12.928-.29.207-1.062.757-1.165 1.723-.101.947.503 1.609.719 1.846 4.214 4.719 5.082 10.705 5.61 16.418.212 2.552-.283 5.053-1.474 7.434-.934 1.865-.602 3.418 1.014 4.747 1.195 1.013 2.288 2.105 3.446 3.263.829.829 1.742 1.249 2.713 1.249.822 0 1.622-.295 2.444-.901.847-.612 1.493-1.36 2.118-2.085.127-.148.256-.297.386-.443l.024-.028c.288-.343.575-.689.862-1.033 1.969-2.372 3.829-4.613 6.382-6.123.698-.422 1.439-.654 2.088-.654.655 0 1.166.226 1.518.67-3.157 1.185-4.939 3.846-6.518 6.201l-.447.664c-.932 1.363-1.788 2.779-2.616 4.149-.308.51-.615 1.02-.924 1.52-1.153 1.858-3.082 2.966-5.161 2.966-1.535 0-2.989-.577-4.203-1.663-.325-.294-.655-.586-.986-.879-1.228-1.085-2.389-2.109-3.282-3.277-1.875-2.467-4.278-3.33-6.641-3.606.612-1.014 1.474-1.97 2.652-2.957 2.596-2.092 3.687-4.909 3.437-8.863-.209-3.323-.643-7.656-2.158-11.713l-.007-.018c-.99-2.552-2.308-5.118-5.236-6.612-1.089-.569-2.168-.7-3.121-.815-.165-.02-.33-.04-.489-.062-2.714-.378-5.469-.821-8.133-1.251-5.106-.822-10.386-1.672-15.692-2.117a61.353 61.353 0 0 0-5.1-.214c-3.793 0-7.653.366-11.506 1.089 1.865-2.103 4.176-3.802 6.583-5.571l.461-.338zm-34.372 8.773c.96.934 1.32 2.214 1.737 3.697.171.609.348 1.239.572 1.853.609 1.727 1.374 3.521 3.399 4.811.897.578 1.451 1.412 1.702 2.6-1.011-1.352-2.336-2.441-4.008-3.296-3.798-1.939-5.624-5.512-4.758-9.339.092-.429.293-.682.84-.971.131.194.294.425.516.645zM392.794 144.921c-4.461-11.74-8.549-22.31-13.421-32.757l-.009-.019c-.54-1.118-.606-1.981-.219-2.881 2.402-5.309 3.266-10.937 2.566-16.73-.154-1.272-.109-2.579-.062-3.962.049-1.447.1-2.943-.08-4.468-.623-5.5-2.039-10.825-3.408-15.974-.562-2.115-1.144-4.301-1.659-6.46-1.435-6.092-4.098-11.704-6.674-17.131-1.028-2.166-2.091-4.406-3.052-6.63-1.541-3.565-3.628-6.906-5.647-10.136-1.064-1.702-2.164-3.463-3.155-5.213-.768-1.36-1.598-2.687-2.401-3.97-1.007-1.609-1.959-3.131-2.805-4.719-1.418-2.698-3.355-5.675-6.964-7.306l-.018-.008a8.542 8.542 0 0 1-.33-.157c-.549-.267-1.232-.601-2.014-.601-.755 0-1.434.323-1.91.908l-.031.04c-.583.767-2.134 2.803-1.156 5.166a258.686 258.686 0 0 0 1.646 3.848c.538 1.24 1.095 2.522 1.62 3.786.738 1.749 1.52 3.51 2.278 5.212 2.285 5.138 4.648 10.45 5.99 15.997l.157.633c.674 2.727 1.311 5.304 1.481 7.97l.003.037c.019.214.02.396.01.546a3.747 3.747 0 0 0-.368-.472c-1.805-1.966-4.282-4.223-7.457-4.223-.878 0-1.755.18-2.609.534l-.041.018c-.378.17-.852.26-1.37.26-.285 0-.58-.027-.876-.079l-.146-.03.096-.066c.167-.111.363-.223.568-.34.422-.24.9-.512 1.323-.892l.022-.02c1.844-1.723 1.529-3.5.616-4.595-.47-.581-.938-1.203-1.392-1.803-1.326-1.758-2.697-3.576-4.506-5-4.257-3.336-9.234-7.174-14.412-10.493l-.039-.024c-.34-.204-.678-.418-1.037-.645-.366-.232-.743-.471-1.119-.695-8.144-4.914-17.077-9.752-27.302-14.785-1.101-.55-2.586-1.181-4.298-1.181-.157 0-.316.005-.472.016l-.049.004-.299.026c-.916.075-2.622.214-3.365 2.009-.677 1.569-.417 3.246.715 4.604l.185.212c.985 1.127 2.101 2.405 3.693 3.307 1.188.673 2.413 1.318 3.597 1.941 2.774 1.462 5.643 2.973 8.12 4.895 6.781 5.198 14.05 10.837 21.252 16.848 2.271 1.877 4.359 3.997 6.105 5.827l3.621 3.765c.276.275.404.514.432.605.008.05.018.097.028.14v.028a1.004 1.004 0 0 1-.173.214c-.193.193-.283.193-.317.193-.284 0-.82-.3-1.221-.526-.15-.096-.353-.336-.55-.569-.092-.11-.185-.219-.28-.326l-.03-.034-.609-.609a67.59 67.59 0 0 1-.923-.944c-.616-.638-1.254-1.298-1.962-1.938l-.1-.089c-.383-.335-.816-.715-1.287-1.033-2.68-2.01-5.403-4.041-8.037-6.004-2.637-1.966-5.366-3.999-8.047-6.01l-.605-.453c-5.081-3.812-10.336-7.753-15.454-11.627-3.022-2.302-6.263-4.269-9.907-6.015-.701-.336-1.304-.493-1.895-.493-1.453 0-2.353 1.004-2.649 1.334l-.032.038c-1.398 1.666-1.632 3.556-.682 5.452 1.084 2.215 2.649 4.194 4.791 6.054.458.393.917.783 1.378 1.171 1.968 1.665 3.826 3.236 5.423 5.056l.014.016c2.776 3.08 5.613 6.196 8.356 9.21 7.199 7.908 14.644 16.085 21.68 24.368.521.635.809 1.246.908 1.936.039.25.037.427.025.537a1.88 1.88 0 0 1-.435-.093 8.483 8.483 0 0 1-.783-.415l-.569-.323c-11.644-6.587-23.686-13.398-34.726-21.291-3.073-2.181-6.61-4.144-10.815-6.002l-.077-.036c-.712-.327-1.518-.697-2.442-.697-.774 0-1.88.273-2.745 1.572l-.018.027c-1.084 1.703-.48 4.663 1.233 5.985 3.239 2.449 6.359 5.207 9.377 7.874.953.842 1.938 1.714 2.916 2.564 1.331 1.157 2.693 2.321 4.009 3.447 7.681 6.567 15.622 13.358 21.339 22.011 1.063 1.568 3.46 2.271 5.363 2.271.808 0 1.971-.126 2.921-.731 3.973-2.523 7.857-3.751 11.875-3.751l.209.001-12.501 8.119c-.657.428-1.053.486-1.354.486a2.78 2.78 0 0 1-.717-.108l-.019-.005c-.495-.126-.983-.271-1.5-.423-1.539-.453-3.131-.923-4.928-.923l-.204.002c-7.977.086-16.584.914-27.1 2.612-.276.047-.554.091-.831.135-1.808.287-3.677.585-5.491 1.634-1.54.9-2.286 2.497-2.047 4.385.216 2.003 1.2 3.178 2.922 3.49 4.733.938 9.527 1.931 14.164 2.891l2.425.502c.297.073.596.147.894.223 1.603.402 3.256.817 4.987.978 7.248 4.565 13.055 8.466 18.25 12.259 4.332 3.167 8.426 4.991 12.895 5.745 1.52.242 3.076.657 4.58 1.058.506.135 1.011.27 1.507.396.918.241 1.871.404 2.793.562 1.853.317 3.603.615 4.72 1.472 1.23.945 2.079 2.808 2.901 4.609.31.682.632 1.387.979 2.055.357.738 1.421 2.886 3.967 2.886.4 0 .828-.054 1.272-.163l.021-.005c.168-.044.269-.05.315-.05h.011c.053.061.186.251.381.797a1304.72 1304.72 0 0 0 3.024 8.498c1.256 3.504 2.554 7.125 3.784 10.68l.029.085.04.082c.401.832 1.149 2.379 2.976 2.379.405 0 .838-.075 1.358-.237a1850.863 1850.863 0 0 1 28.882-8.67c.834-.234 1.854-.631 2.349-1.633.49-.985.189-2.035-.133-2.842z" style="" fill="#33a8ff" data-original="#c18f69" class="" opacity="1"></path><path d="m322.486 400.067 63.791-25.996 1.056-22.544 11.079-22.878 2.446-25.324 12.471-38.131 13.862-31.894-1.055-7.627-2.063-6.955 1.391-7.962-2.445-9.353 1.391-6.57-12.471-15.253-55.493 19.426 2.446 7.29-5.181 8.681 4.844 14.917-7.627 14.917 10.745 32.231 22.878 12.135c-1.055.335-29.114-2.446-29.114-2.446l6.57 13.525-7.625 21.152-9.016 4.509-7.627 2.446-14.917 17.315-11.079 27.339 9.353 27.052 1.39-.002zM87.851 208.597l56.597 6.475 7.289 35.973-12.229 29.066 6.859 4.987 11.847 32.903 13.813 15.302 9.545 5.755 16.834 16.066 19.521 14.533-6.907 14.917 1.15 11.079-2.302 6.14-4.22 11.847-40.913-11.847 1.153-6.907-5.755-7.627 1.917-7.29-55.829-40.912-4.22-10.36-12.229-3.79-.385-87.629-4.989-12.614 3.453-16.067z" style="" fill="#33a8ff" data-original="#004284" class="" opacity="1"></path><path d="M346.425 328.352z" style="" fill="#885630" data-original="#885630" class=""></path><path d="M190.032 349.94a45.27 45.27 0 0 1-1.062-1.039 46.98 46.98 0 0 0-1.236-1.209c-1.566-1.407-3.045-1.065-3.607-.851-.556.208-1.876.913-2.107 2.875-.23 1.739-.299 3.451-.365 5.106-.092 2.311-.179 4.494-.684 6.593l-.794 3.498h5.35l.784-1.567c.744-1.488 1.49-2.989 2.234-4.491.74-1.494 1.482-2.986 2.227-4.477v-.001a3.784 3.784 0 0 0-.529-4.214l-.211-.223zM346.425 328.352l-.981-.429c-1.81-.791-3.451.134-4.54.744-.234.132-.461.275-.651.346-2.211.791-3.284 2.243-3.192 4.288.138 4.077.574 8.391 1.376 13.576l1.401 9.066 3.956-8.276c.62-1.294.78-2.383.898-3.179l.061-.401c.387-2.294.775-4.542 1.162-6.792l.558-3.241c.043-.214.138-.445.219-.679.355-1.007.893-2.533.184-4.052l-.451-.971zM355.162 285.843c4.72.076 9.177.15 13.675.814l11.139 1.644-9.031-6.722c-2.302-1.713-5.102-2.798-8.311-3.22-2.052-.282-4.111-.544-6.168-.81a3.203 3.203 0 0 0 1.586-.564 4.8 4.8 0 0 0 1.946-2.546l.27-.807-.218-.82a25.37 25.37 0 0 1-.238-.997 33.245 33.245 0 0 0-.289-1.21l-.133-.497-8.57-36.114-8.416-9.481c-10.803-21.766-22.903-23.812-37.312-30.586a3.125 3.125 0 0 0-.485-.194l-.234-.074c-4.242-1.297-8.59-1.089-13.688.652l-.028.01c-2.939 1.039-11.14-5.564-18.285-11.084-7.304-5.626-16.769-10.146-24.702-11.8-10.028-2.091-20.481 1.034-29.703 3.791l-2.298.683c-1.805.548-3.534 1.189-5.091 1.787a27.47 27.47 0 0 0-4.234 2.271c-5.221 3.297-11.138 7.034-16.241 11.877-.21.19-.413.387-.609.578-.188.186-.366.37-.576.533l-.2.16c-1.349 1.038-2.465 2.073-3.543 3.075-.509.472-1.017.944-1.543 1.411l-.983.884c-5.445 5.949-9.934 12.733-13.899 18.728-1.906 2.902-3.902 6.046-5.551 9.766-.688 1.563-5.373 3.071-6.265 4.669-1.045 1.872-2.124 3.81-2.981 5.907l-.465 10.558s-7.313 17.589-11.587 24.406a15.915 15.915 0 0 0-2.029 4.816l-1.89 7.791s10.149-5.216 13.694 16.779l1.836 7.333 3.439-6.731c.339-.66.642-1.304.934-1.925.621-1.317 1.157-2.453 1.874-3.365 2.879-3.811 6.857-6.208 11.84-7.125 3.04-.576 6.097-.906 9.334-1.254 1.447-.158 2.896-.313 4.361-.494 5.679-.731 11.518-1.18 17.167-1.613 6.88-.528 13.991-1.073 20.98-2.136 10.033-1.522 20.598-3.786 29.884-9.994 1.576-1.059 3.185-2.072 4.792-3.086 4.696-2.961 9.551-6.022 13.692-10.24 4.016-4.119 7.922-8.661 10.414-14.204-1.351 7.732.589 14.405 5.841 19.891.298.299.598.596.866.814 4.736 4.298 10.579 9.114 18.022 12.264 2.869 1.21 5.786 2.439 8.769 3.554l-2.477 5.487 10.156 5.539c2.632 1.44 5.616 3.085 9.337 2.958 1.031-.023 2.113.122 3.261.278.476.067.95.131 1.423.186l.017.001c1.793.194 3.628.292 5.544.292 3.4 0 7.051-.307 11.157-.931l8.089-1.228-7.114-4.041c-1.136-.645-2.602-3.206-4.26-6.366.258.003.517.005.775.01 1.176.023 2.355.042 3.533.062z" style="" fill="#33a8ff" data-original="#63401e" class="" opacity="1"></path><path d="M90.969 182.362c-1.44.096-3.07-.048-4.318 1.153-3.694 3.548-3.598 9.929.239 13.285 2.159 1.919 5.324 1.919 7.579 0 2.926-2.541 3.646-6.283 1.919-10.695-1.056-2.736-2.495-3.743-5.419-3.743zM415.87 153.967c-3.07.048-5.85 2.927-5.707 5.852.144 2.733 2.494 5.133 5.083 5.035 2.734-.048 5.373-3.07 5.325-6.044-.096-3.308-1.631-4.891-4.701-4.843zM332.559 441.027c-5.516-4.557-13.477-4.076-18.515 1.007-3.117 3.213-3.646 6.474-1.678 10.503 1.487 3.022 3.548 5.611 5.563 8.296 1.44 1.87 2.974 3.742 4.318 5.709.959 1.391.479 2.493-1.15 3.022-.959.334-1.87.239-2.783-.096-2.831-1.007-5.324-2.589-7.481-4.605-.72-.672-1.439-1.487-1.631-2.494-.239-1.487-1.054-2.157-2.493-2.302-1.631-.143-3.118-.143-4.077 1.583-1.583 2.783-1.15 5.275 1.726 7.866 5.516 4.892 12.086 7.051 18.659 7.579 5.996.095 9.687-5.325 7.722-10.408-.863-2.302-2.35-4.318-3.789-6.283-2.399-3.166-4.892-6.235-7.147-9.497-1.774-2.493-.959-4.315 1.968-5.276 2.685-.863 4.987-.096 7.194 1.583 2.589 2.014 4.796.958 5.372-2.303.332-1.725-.579-2.876-1.778-3.884zM355.773 447.215c4.268-.096 8.538-.144 12.662-1.488 1.535-.528 2.926-1.2 3.838-2.589 1.391-2.159.863-3.598-1.631-3.694-5.468-.239-10.936-.672-16.404 0-3.261.385-6.379 1.296-7.579 4.94-.048.191-.287.479-.479.528-3.742.959-5.035 4.029-6.044 7.147-2.111 6.907-3.981 13.91-5.947 20.815-.481 1.678.191 2.783 1.582 3.646 1.104.671 2.207.624 3.454.287 6.475-1.583 12.949-3.309 19.713-2.831.911.048 1.726-.191 2.541-.576 1.583-.815 2.637-2.926 2.35-4.796-.287-1.822-1.726-2.35-3.261-2.59a29.53 29.53 0 0 0-3.548-.335c-4.124-.095-8.251.481-12.375 1.055.624-4.557.959-4.844 5.276-4.844 3.214 0 6.427-.191 9.449-1.439 2.014-.863 3.309-2.255 3.502-4.509.143-1.535-.481-2.446-2.064-2.494a33.265 33.265 0 0 0-3.789.048c-2.926.239-5.852.528-9.066.815.479-1.054.72-2.014 1.248-2.733.863-1.248-.144-3.548 1.678-4.172 1.488-.478 3.262-.144 4.894-.191zM148.281 441.125c-.575 1.682-1.432 3.114-2.967 4.033-.961.575-1.975.857-3.03.23-3.166-1.912-6.04-.951-8.819.815-2.163 1.442-3.594 3.459-4.89 5.663-1.776 3.02-2.926 6.28-3.741 9.644a5.841 5.841 0 0 0-.104 2.445c.439 2.152 1.16 2.633 3.271 2.111 4.263-1.108 8.296-2.926 12.413-4.409 1.254-.439 2.456-.961 3.845-.92 1.39.052 2.058.575 2.058 2.069 0 1.63-.627 2.926-1.682 4.075-1.296 1.39-2.821 2.445-4.504 3.354-4.838 2.644-9.989 4.409-15.308 5.642a248.794 248.794 0 0 1-9.394-5.883c-.481-1.933-.47-3.95 0-5.998 1.964-8.871 5.998-16.687 12.904-22.727 3.208-2.79 6.907-4.514 12.225-4.754 1.87 0 4.42.909 6.865 2.299.911.534 1.193 1.297.858 2.311z" style="" fill="#212121" data-original="#1a1a1a" class="" opacity="1"></path><path d="M425.175 177.181c1.583-.479 2.016-1.391 2.111-2.829.911-12.086 1.822-24.222 2.783-36.308.144-1.679-.143-2.014-1.87-1.487-9.066 2.877-18.13 5.611-27.242 8.442-2.783.863-2.831.863-4.077-1.87-4.605-10.36-8.201-21.104-11.99-31.751-.816-2.254-.816-4.268.143-6.331 1.344-3.741.481-7.531.385-11.318a2.418 2.418 0 0 1-.096-.576c-.958-10.408-2.35-20.769-5.083-30.937a120.24 120.24 0 0 0-9.977-25.372c-4.557-8.633-9.449-17.171-14.725-25.469-2.255-3.548-4.653-6.762-8.681-8.538-1.44-.622-2.879-.815-4.414-.958-1.774-.192-2.783.479-3.933 1.869-1.965 2.399-2.685 5.803-1.391 8.586 3.789 8.201 7.242 16.595 10.551 24.989.191.385.433.768.767 1.344-.767-.048-1.006-.433-1.248-.863-5.947-6.188-12.949-11.127-19.951-16.068-9.449-6.716-19.761-12.038-30.025-17.41-1.391-.72-2.783-1.153-4.268-1.296-2.541-.287-5.133-.528-7.674-.815-4.029-.481-7.099 1.822-7.099 5.85 0 2.159-.911 2.637-2.685 2.783-1.583.096-3.742 2.302-3.933 3.837-.576 4.892.959 9.016 4.557 12.375 8.872 8.299 17.458 16.885 26.044 25.469l.287.144c.239.191.43.43.576.767-.144.048-.287.048-.385.048a1.145 1.145 0 0 1-.72-.433c-.047-.048-.095-.095-.095-.143-1.248-.72-2.542-1.392-3.742-2.207-5.996-3.981-11.894-8.057-17.891-11.942-2.783-1.822-5.707-3.166-9.209-3.405-3.261-.239-5.612.624-7.818 2.877-1.487 1.487-2.016 3.022-1.774 5.037.334 2.926 2.302 4.748 4.461 6.235 10.025 6.764 18.993 14.677 27.292 23.454.719.768 1.486 1.583 2.302 2.255 2.35 1.919 3.789 4.461 5.227 7.098.672 1.2.433 1.487-.863 1.487-8.537 0-16.69 2.351-24.892 4.077-3.357.72-6.668 1.87-7.866 5.611-1.296 4.174-1.919 6.523 3.213 7.819 10.216 2.541 20.098 6.139 29.738 10.311.863.385 1.63.911 2.35 1.535 2.398 2.064 4.605 4.366 7.242 6.044 7.579 4.94 15.397 9.545 24.365 11.656 1.056.239 2.016.767 3.022 1.006 1.007.287 1.679.864 1.87 1.87.576 3.548 2.783 5.564 6.092 6.57.433.144.768.433 1.199.577 1.054.334 1.535 1.102 1.87 2.157a486.445 486.445 0 0 0 4.22 14.293c.528 1.583.048 2.014-1.391 2.446-7.435 2.159-14.821 4.414-22.207 6.666-2.637.815-2.685.863-1.344 3.261l18.13 32.663c2.542 4.605 2.639 4.605 7.29 2.207.481-.239 1.153-1.056 1.583-.287.433.719 1.2 1.774.479 2.589-2.254 2.591-3.789 5.612-5.707 8.394-.624.911-.624 1.487-.095 2.351a718.552 718.552 0 0 1 5.996 10.023c.239.385.672.864.576 1.153-.768 2.446-1.631 4.891-2.446 7.337-1.344-5.324-3.646-9.929-6.331-14.292-3.598-5.755-8.201-10.841-12.375-16.213-.672-.815-1.439-1.535-2.207-2.302-3.981-4.124-9.114-6.618-13.958-9.544-2.157-1.296-4.363-2.064-6.811-2.542-7.481-1.583-14.917-2.207-22.35.096-1.535.479-2.35.095-3.261-1.2-1.822-2.542-3.309-5.468-5.755-7.435-5.996-4.796-12.327-9.16-19.713-11.655-5.611-1.919-11.32-3.166-17.267-3.357-3.07-.096-6.187.096-9.257.335-7.914.624-15.78 1.487-22.783 5.85-1.391.864-2.974 1.344-4.412 2.159-7.194 3.885-14.293 7.723-20.289 13.573-6.188 6.092-12.375 12.184-17.939 18.85-6.426 7.674-11.27 16.356-15.636 25.324-.287.624-.43 1.392-1.391 1.919-.815-5.083-1.631-9.977-2.398-14.869-.144-.911.43-.863 1.054-.768 1.774.192 3.503.289 5.277.529 1.343.191 2.063-.096 2.398-1.583.43-2.063.911-4.124 1.343-6.235 1.631-7.914 3.981-15.589 6.044-23.359.385-1.487.144-2.014-1.391-2.398-7.627-1.822-15.251-3.837-22.878-5.659-1.439-.335-2.111-.864-1.679-2.398 1.727-5.949 2.494-12.184 4.844-17.987.239-.624.481-1.248 1.104-1.726 1.965-1.535 3.404-3.309 3.213-6.044-.144-2.063.815-3.357 2.783-4.268 3.646-1.726 7.146-3.742 10.6-5.755 2.733-1.583 4.987-3.789 6.522-6.666 6.427-12.086 11.799-24.798 19.569-36.164.672-1.007 1.2-2.111 2.016-2.974 5.035-5.277 9.735-10.888 15.397-15.589 1.774-1.487 2.254-3.5 2.302-5.707 0-2.542-1.487-4.318-3.022-6.092-1.487-1.726-3.022-3.213-5.563-2.926-.577.048-1.153-.191-1.776-.287.385-.768 1.007-.959 1.535-1.296a4712.225 4712.225 0 0 0 20.289-13.142c8.201-5.277 16.356-10.6 24.605-15.876 1.054-.672 1.535-1.198.382-2.207-.287-.239-.479-.576-.719-.863-1.679-1.965-1.679-1.965-3.981-.576-22.926 14.245-45.852 28.538-68.778 42.784-2.016 1.248-2.016 1.248-3.022-1.007-2.255-5.229-3.551-10.744-5.229-16.162-.385-1.248-.048-1.968.911-2.734 5.755-4.605 11.031-9.785 16.356-14.821 2.159-2.063 3.357-4.509 3.741-7.387.433-3.405-1.822-5.181-4.891-3.933-1.535.624-3.022 1.296-4.414 2.111-13.573 7.481-28.059 12.614-42.928 16.932-.863.239-1.63.528-2.35-.385-1.487-1.822-3.694-2.829-5.564-4.172-.382-.287-.767-.385-1.246-.287-2.016.528-4.077 1.104-5.325 2.926-3.165 4.653-7.146 8.777-10.12 13.621-3.405 5.612-6.667 11.223-10.503 16.548-.72 1.006-1.007 1.15-1.679-.048-4.22-7.435-8.49-14.869-12.71-22.302-1.343-2.351-2.783-4.605-4.461-6.764-1.87-2.35-4.172-3.502-7.147-3.166-.528.048-1.2-.095-1.391.72-.43 2.207-1.439 4.509-1.15 6.618.672 5.42 1.631 10.84 2.974 16.117 2.302 9.16 4.892 18.225 7.627 27.244 2.637 8.872 5.611 17.601 8.49 26.427.239.768.672 1.439-.385 2.063-1.344.768-3.5 1.153-3.742 2.494-.239 1.391 1.007 3.022 1.583 4.509.048.096.096.239.144.335.479 1.15.719 2.877 1.582 3.309 1.153.576 2.207-1.007 3.262-1.631.959-.576 1.294-.43 1.726.576 2.494 5.852 5.035 11.656 7.579 17.508.385.911.479 1.822.143 2.734-1.774 4.652-2.926 9.496-3.837 14.388-.239 1.391-.767 1.391-1.822 1.102a2121.319 2121.319 0 0 0-16.643-4.22c-2.446-.624-2.446-.624-2.734 1.87v.191a10862.04 10862.04 0 0 1-3.646 39.858c-.095 1.2.048 1.679 1.344 1.822 3.885.481 7.722 1.104 11.56 1.679.719.096 1.343.143 1.15 1.2-.863 4.509-1.535 9.066-2.494 13.525-.287 1.344-.096 2.255.672 3.261 1.343 1.727 2.637 3.503 3.981 5.277.911 1.248 1.582 2.877.767 4.172-.528.815-.672 1.535-.672 2.35.144 8.299.144 16.595.529 24.894.191 4.029.143 8.057.239 12.086.191 10.695.815 21.343 1.2 32.04.191 5.229-.72 10.407-.481 15.636.048 1.296.335 2.014 1.679 2.446 3.165 1.007 6.235 2.302 9.449 3.309 1.726.528 2.926 1.487 3.692 3.118.672 1.439.863 2.878.768 4.363-.048 1.439.479 2.303 1.63 3.118 4.94 3.548 9.834 7.194 14.773 10.84 12.999 9.592 25.997 19.232 39.043 28.779 1.2.911 1.487 1.63.768 2.926-.672 1.248-1.104 2.685-1.774 3.933-.577 1.15-.481 1.87.622 2.685 1.631 1.15 3.214 2.446 4.701 3.742 1.296 1.102 1.343 2.831.959 4.172-.287.959-1.726.096-2.639 0-.622-.048-1.246-.191-1.869-.287-6.188-1.007-12.327-2.59-18.611-3.118-10.023-.815-20.047-1.678-30.168-1.391-.528 0-1.343-.481-1.487.576-.143.863-.335 1.774.624 2.35.488.288 1.002.53 1.535.72 5.659 1.965 10.936 4.796 16.117 7.77 3.357 1.919 6.667 4.077 10.359 5.372.672.241 1.344.768 2.159.048a4172.283 4172.283 0 0 1-16.643-13.286c.768-.576 1.392-.335 1.968-.287 6.667.528 13.286 1.439 19.76 2.974a757.362 757.362 0 0 1 42.4 11.464c4.605 1.392 9.497 2.063 13.621 4.844 1.007.672 1.583 1.344 1.487 2.591.239.287.528.671.191.911-.382.239-.719-.241-1.006-.481-3.261-.287-6.524-.528-9.736-.863-9.257-.911-18.466-2.207-27.818-1.917-7.003.191-14.006-.289-20.961.191-9.88.672-19.76 1.965-29.594 3.022-.479.048-1.248-.048-1.248.528 0 .72.289 1.535 1.2 1.726.72.144 1.488.241 2.255.241 4.987.191 9.929.143 14.917.239 12.375.287 24.798-.239 37.171.815 4.461.385 8.968.191 13.333 1.007 20.576 3.837 41.058 7.866 61.489 12.327 2.398.528 4.844.911 7.194 2.063-1.102 1.007-2.541 1.296-3.165 2.733-4.366 10.121-7.242 20.767-10.6 31.225-.576 1.774.624 3.837 2.398 4.318 3.261.911 6.474-1.104 7.05-4.414.385-2.159.768-4.318 1.056-6.522.096-.72.335-1.104 1.056-1.344 2.637-1.054 5.227-2.159 7.865-3.213 3.886-1.583 7.531-3.548 10.553-6.475 2.685-2.541 4.939-5.468 4.987-9.401 0-1.2.287-1.965 1.248-2.685 4.413-3.405 8.346-7.29 12.181-11.271 3.694-3.885 7.819-7.289 11.992-10.646.479-.385.863-.959 1.631-.672 3.598 1.439 7.146 2.831 11.174 4.412-7.481 4.557-14.579 8.922-21.63 13.191-.335.191-.72.287-1.054.382-2.59.768-4.844 2.159-6.764 4.029-7.481 7.433-11.32 16.26-10.888 26.955.287 7.194 4.412 10.6 11.414 8.968 12.28-2.878 22.783-14.628 24.605-27.531.479-3.598 1.054-7.146-1.535-10.264a45.16 45.16 0 0 0-3.548-3.885c.382-.239.576-.385.767-.528 15.541-9.257 32.47-15.541 49.45-21.391 20.769-7.147 41.967-12.855 63.216-18.323-.479-.095-1.007-.239-1.487-.335-1.391.144-2.733.289-4.124.385-5.852.528-11.704 1.15-17.411 2.685-.108.057-.22.106-.335.144-.528.239-1.15.287-1.869.287-.287 0-.576 0-.959.048 1.294-1.248 5.035-5.277 6.044-4.989l.048-.096h.095c0-.143.385-.43.385-.43.335-.576.815-.959 1.487-1.007 1.102-1.535 2.398-2.78 3.933-3.741 1.007-.624 2.063-1.248 3.213-1.727h-.047c3.209 0 6.371-3.873 9.723-5.221-.032-.12-.188-.212-.275-.342-4.796.672-9.496 1.439-14.101 3.165-9.831 3.646-20.001 6.475-29.594 10.697-14.821 6.474-29.594 12.949-43.839 20.672-.433.239-.863.43-1.535.719-.385-3.452-.719-6.764-1.102-10.072-.096-.672.239-.959.815-1.248 12.614-6.668 25.276-13.286 38.467-18.754 10.84-4.509 21.582-9.401 32.47-13.815.048-.095.096-.191.192-.191h.095c.048 0 .048.048.096.048.144.239.048.385-.096.528-.048.048-.095.048-.191.096h-.048c-2.877 4.124-5.516 8.442-7.433 13.19.767.191 1.054-.048 1.343-.335 2.255-2.398 4.509-4.748 6.716-7.146 4.268-4.701 8.777-9.162 14.054-12.806.334-.239.911-.43.671-.958-.287-.577-.911-.289-1.343-.192-4.94 1.007-9.88 1.919-14.773 3.07-1.631.385-1.535-.191-1.583-1.344-.048-3.933.528-7.77.672-11.703a12.63 12.63 0 0 1 1.15-4.94c1.965-4.509 3.933-8.968 5.947-13.477 1.007-2.255 1.583-4.652 1.968-7.051.624-3.837 1.102-7.722 1.487-11.607.624-5.949 2.733-11.56 3.741-17.458 1.296-7.484 2.351-15.013 5.133-22.159 2.494-6.331 4.892-12.662 7.435-18.945 3.5-8.538 7.962-16.643 10.073-25.757.719-3.166 1.534-6.044.095-9.162-.815-1.678-1.054-3.598-1.63-5.42a7.84 7.84 0 0 1-.241-4.076c.959-4.892 1.392-9.736-1.245-14.293-.72-1.248.143-2.014.863-2.783 1.774-1.822 1.87-2.637.334-4.605-1.774-2.206-3.5-4.461-5.419-6.522-1.583-1.678-3.07-3.5-4.653-5.229-1.104-.671-1.007-1.102.239-1.535 2.772-.965 5.506-2.165 8.335-3.029zM296.25 451.339c-.767 5.853-3.165 11.847-8.49 16.356-1.87 1.583-4.029 2.541-6.474 2.733-2.927.239-5.229-1.631-4.94-4.557.576-6.427 2.302-12.471 6.618-17.506 2.637-3.022 6.475-3.838 10.312-2.398 2.256.913 3.023 2.015 2.974 5.372zm55.877-315.166c-.48-1.343-1.054-2.063-2.541-1.726-1.776.431-2.734-.335-3.502-1.919-1.248-2.541-2.254-5.611-4.315-7.194-2.064-1.583-5.325-1.631-8.058-2.302-2.063-.529-4.124-1.153-6.235-1.487-4.557-.768-8.49-2.734-12.232-5.468-6.044-4.462-12.278-8.586-18.658-12.519-2.063-.143-4.029-.72-6.044-1.2-5.564-1.15-11.079-2.35-16.643-3.405-1.343-.239-1.583-1.246-1.678-2.157-.144-1.104.143-2.207 1.294-2.879 1.774-1.056 3.79-1.248 5.803-1.583 8.873-1.391 17.843-2.446 26.859-2.589 2.207-.048 4.174.767 6.236 1.294 1.246.335 2.206.192 3.309-.576 4.315-2.877 8.681-5.611 12.999-8.442.671-.431 1.917-.719 1.391-1.869a1.717 1.717 0 0 0-.287-.433c-.239-.191-.528-.239-.863-.239-.335 0-.672.048-1.007.048h-.143c-4.892-.144-9.258 1.391-13.334 3.98-1.583 1.007-5.181.385-6.188-1.102-6.81-10.312-16.451-17.745-25.613-25.757-4.076-3.548-8.057-7.242-12.375-10.503-1.102-.815-1.583-2.877-.863-3.933.959-1.439 2.207-.815 3.357-.287 3.694 1.631 7.242 3.5 10.551 5.852 11.271 8.057 23.359 14.868 35.397 21.678.335.191.672.385 1.006.528 1.822.624 2.783-.191 2.494-2.111-.143-1.006-.576-1.87-1.248-2.685-9.736-11.464-20.001-22.448-30.072-33.623-2.111-2.302-4.605-4.315-6.955-6.378-1.87-1.583-3.357-3.405-4.414-5.564-.671-1.344-.528-2.637.481-3.79.815-.911 1.535-1.102 2.733-.479 3.405 1.631 6.618 3.548 9.64 5.852a4702.448 4702.448 0 0 0 16.068 12.086c5.372 4.028 10.744 8.009 16.114 12.038.433.335.863.672 1.248 1.006 1.007.911 1.87 1.87 2.831 2.831l.576.576c.385.385.719.911 1.2 1.2 1.102.672 2.254 1.248 3.405.096.382-.385.576-.72.624-1.102 0-.144.047-.287 0-.433 0-.048 0-.144-.048-.191a3.436 3.436 0 0 0-.863-1.44l-3.599-3.741c-2.014-2.063-4.028-4.077-6.235-5.947-6.955-5.803-14.101-11.417-21.295-16.885-3.646-2.78-7.914-4.652-11.895-6.955-1.439-.815-2.398-2.014-3.454-3.165-.719-.863-.91-1.919-.479-3.022.433-1.056 1.487-1.007 2.398-1.104 1.439-.143 2.733.385 3.981 1.007 9.257 4.557 18.369 9.449 27.196 14.726.719.43 1.439.863 2.159 1.342 4.939 3.165 9.64 6.764 14.293 10.408 2.206 1.726 3.837 4.315 5.659 6.57.767.959.239 1.822-.481 2.494-.479.479-1.15.767-1.726 1.102-.624.43-1.439.815-1.2 1.726.191.815 1.102 1.007 1.822 1.15 1.055.192 2.207.144 3.166-.287 3.356-1.391 6.187.959 8.345 3.309.576.624.815 1.87 1.87 1.487 1.102-.43 1.248-1.63 1.15-2.733-.239-3.022-1.007-5.947-1.679-8.872-1.774-7.531-5.372-14.341-8.345-21.439-1.056-2.542-2.207-5.083-3.261-7.627-.576-1.391.191-2.637.959-3.646.624-.815 1.63-.096 2.446.287 3.022 1.344 4.748 3.79 6.235 6.618 1.583 3.022 3.548 5.803 5.229 8.729 2.877 5.086 6.426 9.882 8.729 15.205 3.357 7.77 7.627 15.156 9.64 23.502 1.726 7.387 4.172 14.63 5.035 22.256.335 2.877-.191 5.659.144 8.442.671 5.563-.144 10.84-2.446 15.923-.624 1.391-.433 2.733.239 4.172 5.035 10.649 9.21 21.633 13.382 32.663.528 1.439.287 2.014-1.2 2.446-9.64 2.831-19.28 5.755-28.923 8.681-1.391.433-1.822.048-2.254-1.199a1001.945 1001.945 0 0 1-7.042-19.323zm-60.529 60.817c3.934-1.344 7.866-1.87 11.991-.624.095.048.191.048.287.096 5.181 1.582 10.455 2.829 15.397 5.178.815.385 1.678.768 2.255 1.535 3.213 2.303 6.139 4.94 8.585 8.105 3.79 4.892 7.579 9.834 11.127 15.445-.222-.074-.442-.171-.665-.258l-.025-.029a20.331 20.331 0 0 1-3.674-2.063c-4.349-2.63-8.849-5-13.478-7.098-2.159-.959-4.315-1.583-6.618-2.016-6.044-1.15-12.086-1.343-18.178-.815-1.678.144-3.404 0-5.083 0-1.248 0-1.822-.576-1.822-1.822 0-4.7.239-9.449-1.198-14.006-.292-.956.284-1.339 1.099-1.628zm-1.223 34.594a3.3 3.3 0 0 1 .143-.385c.048-.097.048-.191.096-.287.048-.096.048-.191.096-.335.047-.096.047-.191.095-.287s.048-.239.096-.335c0-.095.048-.191.048-.287 0-.096.048-.239.048-.335 0-.095.047-.191.047-.287 0-.095.048-.239.048-.335 0-.095.048-.191.048-.287 0-.095.048-.239.048-.335 0-.095.048-.191.048-.287 0-.095.047-.239.047-.335 0-.095 0-.191.048-.287 0-.095 0-.239.048-.334v-5.325c-.048-1.63.528-2.254 2.159-2.207 1.62.04 3.241-.016 4.861-.089.49.029.99.055 1.494.078.814-.056 1.63-.089 2.446-.096a44.438 44.438 0 0 1 7.627.481c4.363.335 8.394 1.15 10.983 3.261 1.87.815 3.742 1.822 5.564 2.877 4.413 2.639 8.825 5.373 13.238 8.059.911.576 1.726 1.248 2.35 2.159 1.44 2.063 2.974 4.172 4.462 6.283.239.335.622.72.287 1.15a.742.742 0 0 1-.385.287c0 .003.001.003.003.004-.366.074-.688-.06-1.01-.243-1.965-1.104-3.981-2.159-5.947-3.261-6.859-3.838-14.101-6.572-21.678-8.634-.661-.182-1.323-.36-1.985-.536-2.143-.631-4.147-1.233-6.455-1.527l-3.022-.672c-.096.048.095.239.335.481.094.084.174.181.239.287.239.287.479.479.815.671.048 0 .285.127.385.192 4.557 2.302 12.229 3.742 17.843 6.331l-.096-.048-.287-.143c.069.034.147.069.235.104l.052.039c.433.191.863.433 1.248.624 3.117 1.631 5.947 3.646 8.777 5.803l5.372 4.124c8.057 5.852 12.999 13.767 15.397 23.359.048.287.144.576.191.863l.192.287c.382.576.479 1.296.335 1.919.047.143.047.287.095.43-.095 1.392-1.2.815-1.822.815-4.172-.143-8.2-1.054-12.181-2.206l-.127-.025c-1.026-.301-2.355-.765-3.302-1.066-4.22-1.487-8.201-3.261-12.279-4.748-5.037-1.774-8.97-5.229-13.238-8.251-7.051-4.989-13.863-10.216-20.001-16.308-.624-.624-1.248-1.296-1.583-2.111a81.48 81.48 0 0 1-1.248-3.07l-.719-1.87c-.144-.382-.289-.767-.481-1.2 0-.048 0-.048-.048-.095-.048-.048-.048-.144-.048-.192v-.048c0-.047-.047-.143-.047-.191-.192-.677-.24-1.396 0-2.068zm33.221 4.144c-.131-.059-.248-.103-.391-.176.144.074.262.118.391.176zm-4.659-1.806c-.127-.032-.255-.083-.385-.129.13.048.258.097.385.129zm-10.312-3.933c-.235.14-.573.08-.657.375l-.016-.003c-.078-.377-.03-.518.076-.55.2.083.387.143.56.164l.037.014zm-21.824 10.84c.138-.457.405-.693.679-.632.013.02.027.034.041.056.144.047.287.191.433.479 1.534 3.07 3.644 5.611 5.996 7.962 2.493 2.398 5.181 4.605 7.77 6.955a652.685 652.685 0 0 0 16.356 14.244c3.548 3.022 7.818 4.558 12.375 5.755 10.36 2.639 20.961 3.646 31.464 5.086 2.783.382 5.276 1.294 7.481 3.117h-.144c.192.144.335.239.481.385-5.901-.863-11.799-.767-17.7-.911-6.474-.143-12.805.624-19.184 1.344-2.302.239-4.509 0-6.716-.529-6.14-1.391-11.942-3.885-17.746-6.331-6.57-2.783-12.038-7.05-17.219-11.751-.385-.385-.767-.719-1.15-1.102-1.763-1.747-3.101-3.62-4.048-5.606l-.04-.091c-.019-.039-.032-.078-.051-.116-1.798-4.232-1.701-8.953-.322-14.141.381-1.39.813-2.782 1.244-4.173zm55.543 103.12c-.144.959-.241 1.968-.959 3.309l-.144-.863c-.048.144-.143.287-.239.481-.815-4.94-1.344-9.497-1.487-14.102-.048-1.054.672-1.294 1.344-1.534 1.102-.385 2.493-1.631 3.213-1.056.096.096.191.191.239.287.048.048.096.048.144.096.863.672-.144 2.206-.385 3.357-.624 3.359-1.151 6.669-1.726 10.025zm-3.502-19.041h-1.248c-.767 0-1.535.192-2.302.241-.863 0-1.391.382-1.726 1.15-.335.767-.768 1.439-1.152 2.207-.047.095-.095.191-.143.334-1.535 3.694-3.694 6.86-6.331 9.593-.576.624-1.199 1.2-1.822 1.774a67.864 67.864 0 0 1-4.989 4.076c-2.829 2.016-6.092 3.262-9.353 4.462l-.719.287a9.483 9.483 0 0 0-.672.287c-.144.047-.239.095-.385.143-.191.048-.43.144-.624.191-.719.289-1.294.72-.911 1.824.385 1.197 1.248 1.534 2.351 1.582.239 0 .528 0 .815-.048a12.177 12.177 0 0 0 2.974-.671c.959-.335 1.919-.768 2.926-1.2.672-.287 1.344-.576 2.064-.816-.577 2.446-.911 4.701-1.679 6.812-.144.382-.287.719-.433 1.054a138.742 138.742 0 0 1-1.774 3.838 39.423 39.423 0 0 1-1.248 2.493c-2.302 4.605-4.891 9.016-8.105 13.095a33.121 33.121 0 0 1-2.063 2.398 33.87 33.87 0 0 1-5.035 4.413 75.98 75.98 0 0 1-2.063 1.44 93.613 93.613 0 0 1-4.174 2.446 55.768 55.768 0 0 1-3.404 1.678l-1.296.576c-.335.144-.72.287-1.055.433-.287.095-.576.239-.863.335-.815.334-1.63.622-2.446.911-.239.095-.479.191-.767.239-.856.294-1.72.565-2.589.815a96.863 96.863 0 0 1-8.153 2.063c-1.056.239-2.159.433-3.262.624-.143 0-.239.048-.382.048-1.104.191-2.159.335-3.262.528-1.15.144-2.302.335-3.5.481-3.933.479-7.818.239-11.655-.335-.144 0-.287-.048-.433-.096a80.835 80.835 0 0 0-.576-.143 13.543 13.543 0 0 1-2.879-1.201c-1.248-.671-2.398-1.391-3.644-2.014a34.626 34.626 0 0 1-2.591-1.439c-1.102-.672-2.207-1.344-3.213-2.111-1.968-1.439-3.694-3.118-4.653-5.564a36.136 36.136 0 0 0-1.822-3.885c-.191-.385-.431-.719-.624-1.054-1.583-2.59-3.5-5.037-5.515-7.338-.816-.959-1.631-1.919-2.494-2.831-.433-.479-.816-.958-1.248-1.391a139.816 139.816 0 0 0-5.181-5.516l-1.344-1.343c-1.821-1.774-3.741-3.454-5.755-4.94a17.198 17.198 0 0 0-1.534-1.102 55.66 55.66 0 0 0-4.844-3.118 24.722 24.722 0 0 1-1.2-.72c-.385-.239-.816-.528-1.201-.767-5.467-3.646-9.88-8.442-12.373-14.821a2.648 2.648 0 0 0-.206-.417c-.863-1.853-2.137-2.429-4.391-2.473-1.774 0-3.503-.287-5.037-.959l.001.001-.056-.037c-.959-.385-1.822-.959-2.639-1.679l-.504-.319c-.442-.521-.763-1.153-1.174-1.792-2.859-4.251-5.513-8.589-7.707-13.155l.056.166-.107-.271.049.104a74.478 74.478 0 0 0-1.454-3.918c-.25-.596-.498-1.165-.713-1.703-.223-.774-.342-1.464-.342-2.087 0-.334 0-.719.047-1.006.048-.192.096-.433.144-.624.048-.096.048-.192.096-.287.048-.192.143-.385.239-.576.528-1.007 1.391-1.919 2.541-2.831.433-.335.864-.672 1.344-1.007.911-.671 1.87-1.246 2.783-1.869a76.682 76.682 0 0 1 4.363-2.446c5.42-2.783 11.175-4.749 17.124-6.284.335-.095.671-.143 1.054-.239.672-.143 1.392-.191 2.111-.287a32.304 32.304 0 0 1 2.111-.095c.72 0 1.439-.048 2.111-.048.335 0 .72 0 1.056-.048 2.398-.096 4.796-.239 7.194-.385 3.598-.239 7.194-.528 10.792-.863 3.598-.335 7.194-.72 10.792-1.102 6.524-.768 12.806-2.303 18.802-4.796a88.904 88.904 0 0 0 3.694-1.679c.72-.385 1.487-.719 2.207-1.102.43-.239.815-.433 1.248-.672 2.877-1.535 5.755-3.022 8.537-4.653.287-.382.624-.528 1.104-.671.048 0 .143-.048.191-.048v.239c-.048.287-.191.479-.385.672l-.43.287c-2.783 3.548-6.618 5.996-9.929 8.968a17.27 17.27 0 0 0-1.007.911c-1.054.863-2.111 1.774-3.309 2.733 4.172 0 8.202-.479 11.942-1.583 5.42-1.582 10.36-4.412 14.582-8.729a36.78 36.78 0 0 0 2.783-3.261c2.063-2.733 3.933-5.947 5.564-9.64 1.294 4.652 4.652 7.914 7.481 11.464.191.239.385.528.576.767.191.241.385.529.576.768.335.479.72.863 1.2 1.2.287.239.624.479.911.672.335.239.624.43.911.671.143.096.287.241.433.335a200.971 200.971 0 0 0 6.378 4.844 143.236 143.236 0 0 0 4.366 3.07c2.207 1.535 4.413 3.022 6.57 4.557 2.974 2.063 6.092 3.79 9.353 5.324.816.385 1.631.72 2.446 1.104a84.936 84.936 0 0 0 7.579 2.783l.433.143c1.582.433 3.309.576 4.987.768.624.047 1.248.143 1.822.191.335.048.768.239 1.199.479.433.241.911.624 1.344 1.007 1.487 1.344 2.877 3.261 2.974 4.412 0 .192 0 .335-.048.481-.048.095-.048.143-.096.191-.191.335-.479.624-.671.959-.576 1.007-1.201 2.014-1.679 3.07-.096.191-.143.335-.239.528-.624 1.583-.863 3.261.048 5.229 2.302-2.303 4.363-4.748 5.85-7.531.433-.768.768-1.535 1.104-2.351.239-.528.43-1.102.624-1.678.191-.528.047-1.15.191-1.678.191-.576-.479-1.392-.191-1.776 0-.047.047-.047.095-.095a.77.77 0 0 1 .287-.144c.192-.047.385-.095.529-.095.382-.048.719-.096 1.102-.096.959 0 1.87.144 2.783.43.576.192.382.911.335 1.44v.095c-.096 1.727-.816 3.311-1.44 4.844-.139.376-.299.745-.479 1.104-1.054 2.589-2.159 5.227-3.837 7.481-2.353 3.117-5.087 6.043-9.5 6.186zm-65.709 80.195a35.016 35.016 0 0 1-5.468.433c-1.87 0-3.694-.192-5.564-.624-1.006-.241-1.391-.911-1.296-1.727.048-.528.433-.528.816-.528.239-.048.528 0 .767.048h3.598c.529.048 1.056.048 1.631.048a22.803 22.803 0 0 0 4.748-.481c.287-.047.576-.095.816-.047.622-.048 1.102.095 1.15 1.054.001.865.192 1.633-1.198 1.824zm-89.403-43.024c.958-3.933.576-8.009 1.102-11.99.096-.815.528-.72 1.007-.287.765.719 1.484 1.484 2.25 2.203l.004.004.287.287c.385.335.433.767.239 1.2a1466.366 1466.366 0 0 1-4.461 8.968c-.143-.048-.335-.096-.479-.143.003-.097.051-.145.051-.242zm154.392-66.476c-1.678-.191-3.356-.528-5.083-.479-3.404.096-6.139-1.678-9.016-3.213h.335c-.239-.144-.479-.241-.72-.385.481.048 1.007.048 1.488.096.576.047 1.102.191 1.678.287 4.748 1.006 9.353-.385 14.054-.864 4.843-.528 9.016 1.201 13.093 3.551-.096 0-.143 0-.239.048.191.095.385.239.624.334-5.422.817-10.793 1.199-16.214.625zM158.5 234.306c1.583-3.022 3.357-5.898 5.229-8.681.959-1.391 1.917-2.783 2.926-4.124a57.235 57.235 0 0 1 1.535-2.016 142.424 142.424 0 0 1 4.748-5.898c1.631-1.919 3.261-3.837 4.94-5.755 1.678-1.919 3.357-3.789 4.987-5.707.672-.72 1.487-1.344 2.303-1.968l.513-.592c1.575-1.356 2.942-2.756 4.763-4.204l.241-.191c.43-.385.863-.815 1.343-1.248 4.796-4.557 10.36-8.105 15.923-11.655a23.802 23.802 0 0 1 1.717-1.017 63.635 63.635 0 0 1 2.216-.951c.192-.096.385-.191.576-.239a51.017 51.017 0 0 1 3.454-1.296c.768-.239 1.583-.479 2.35-.72 2.783-.815 5.564-1.486 8.299-2.35 5.083-1.63 10.36-2.35 15.636-2.302.767 0 1.487.048 2.255.048 3.933.191 7.77 1.726 11.366 3.309 1.583.72 3.166 1.391 4.748 2.159l1.15.576c1.152.576 2.351 1.15 3.454 1.822.768.43 1.487.863 2.254 1.294.72.481 1.488.913 2.159 1.44a38.829 38.829 0 0 1 4.125 3.309c4.363 4.028 7.433 8.777 9.257 14.388 1.296 4.029 2.255 8.153 2.591 12.327.334 4.029-.864 7.962-1.919 11.847-.144.576-.385.72-.576.672-.287-.096-.433-.433-.672-.72-1.439-1.678-2.879-3.309-4.318-4.987-5.611-6.524-12.327-11.271-20.815-13.67-6.57-1.822-13.19-2.877-19.856-3.07-5.324-.143-10.745.815-16.068 1.822-4.22.815-8.442 1.487-12.614 2.255-2.734.479-5.229 1.726-7.723 2.829-1.19.53-2.382 1.056-3.611 1.51l-.371.087c-7.531 2.637-13.907 7.182-20.479 11.402-1.798 1.184-3.289 2.778-4.85 4.342l-.186.167-1.296 1.296c-3.022 2.926-5.996 5.901-9.257 8.586-1.487 2.063-3.5 3.5-5.372 5.324.478-3.408 1.39-6.571 2.925-9.45zm-1.335 19.231c.241-.385.481-.72.816-1.056 6.667-6.57 13.044-13.525 20.432-19.28 12.279-9.592 25.661-17.076 41.056-20.385 3.742-.815 7.531-1.391 11.414-1.391 4.414-.048 8.825-.191 13.191-.335 8.442-.287 16.212 2.111 23.311 6.475a40.526 40.526 0 0 1 7.248 5.678l.274.272a42.93 42.93 0 0 1 6.427 8.202c1.582 2.589 1.15 5.42.622 8.251-1.439 8.105-6.331 14.101-11.846 19.712-5.277 5.373-11.895 8.873-18.035 12.952-8.681 5.802-18.61 8.057-28.731 9.544-12.614 1.87-25.419 2.063-38.081 3.741-4.605.577-9.258.959-13.863 1.776-5.468 1.006-10.168 3.692-13.573 8.2-1.248 1.679-2.014 3.742-3.213 6.044a3.869 3.869 0 0 1-.191-.719c-.672-2.733-.241-4.989.719-7.147 2.207-4.891 5.901-8.345 10.649-10.792 8.299-4.363 17.554-5.227 26.427-7.481 7.195-1.822 14.582-2.877 21.729-4.844 9.831-2.733 19.424-6.235 28.489-10.984 4.796-2.493 9.785-5.035 13.095-9.688 2.398-3.404 3.022-7.098 2.398-11.127-.096-.672-.287-1.006-.528-1.054-.239-.048-.576.143-1.007.528-3.598 3.213-7.338 6.283-11.414 8.968-6.379 4.125-13.43 6.62-20.721 8.395-11.607 2.877-23.309 5.324-35.253 6.187-8.442.576-16.739 2.111-24.748 4.844-6.811 2.35-13.718 4.7-19.184 9.785-.672.624-1.488 1.15-2.59 1.965.048-.287.096-.528.144-.767-.192.143-.335.239-.529.382l.02-.096c.162-.127.298-.252.469-.337.334-1.583.958-2.831 1.678-3.981 4.266-6.816 8.583-13.627 12.899-20.437zm47.86 12.616 10.457-1.726 1.821-.335c-2.157 1.15-4.509 1.678-6.859 2.159-11.175 2.78-22.591 4.412-33.91 6.522-8.153 1.535-15.445 4.748-22.063 9.736-.382.287-.815.624-1.246.863-.529.335-.768.239-.864-.191-.047-.096-.047-.241-.047-.385-.192-2.879.671-4.268 3.309-5.468 3.598-1.631 7.194-3.357 10.792-5.035 4.7-2.159 9.736-2.831 14.821-3.357 7.914-.863 15.825-1.871 23.789-2.783zM163.68 78.618c.191.528.239.958-.335 1.294-1.726 1.056-3.405 2.111-5.133 3.166-.144.096-.335.143-.911.385-.143-.241-.335-.672-.624-1.007L145.886 70.08c-.481-.576-.959-1.102 0-1.631 3.548-2.014 6.235-5.276 9.977-7.002.959-.433 1.296-.481 1.774.576 2.397 5.371 4.03 11.079 6.043 16.595zm-29.257-25.23c5.083-1.822 10.072-3.885 15.108-5.898 7.29-2.879 13.91-7.003 20.767-10.649.72-.385 1.391-.863 2.111-1.248.624-.287 1.15-1.15 1.968-.72.958.529.622 1.535.622 2.687.241 1.198-.528 2.206-1.63 3.213-6.907 6.427-14.101 12.518-21.487 18.417-2.926 2.35-6.522 3.452-9.785 5.229-.671.334-1.054 0-1.439-.481-2.398-3.07-4.748-6.187-7.146-9.257-.911-1.101.335-1.053.911-1.293zm-43.502 65.614c-5.468-16.932-11.223-33.766-15.78-50.985-1.056-3.981-1.487-8.153-2.255-12.232-.239-1.2.577-1.822 1.344-2.254 1.056-.529 1.102.719 1.487 1.2 7.531 10.407 12.662 22.158 18.802 33.333 1.822 3.357 3.885 6.618 5.852 9.929.382.625.671 1.153 1.63.816 1.056-.385.863-1.056.672-1.822-.768-3.454-2.542-6.57-3.837-9.834-.481-1.15-.481-2.063.047-3.213 2.734-5.659 6.572-10.6 9.593-16.019 2.78-4.94 6.331-9.353 9.016-14.341 1.391-2.541 4.557-2.974 6.667-.958 1.439 1.342 2.589 2.877 3.598 4.557 3.452 5.611 8.248 10.12 12.901 14.725 3.261 3.261 6.57 6.427 10.025 9.401 1.15 1.006 1.343 2.541 1.965 3.837.241.479.048.863-.382 1.102-.241.144-.481.241-.624.385-2.831 2.398-5.516 2.063-8.825.385-6.57-3.309-12.229-7.675-17.267-12.901-.191-.192-.385-.335-.576-.481-2.302-1.726-2.398-1.63-3.405 1.007-1.054 2.685-1.726 5.468-2.926 8.057-.433.911.239 1.87.911 2.542.767.767 1.296 1.965 2.685 1.774.624-.096.959-.433 1.102-1.102.335-1.583.768-3.166 1.201-5.131 5.227 4.412 11.031 7.818 16.786 11.655-2.014 1.15-3.79 2.159-5.564 3.165-14.245 8.01-28.537 16.019-42.734 24.079-1.15.62-1.631.763-2.109-.676zm4.987 11.128c-.528-1.102-.335-1.583.672-2.207a11430.279 11430.279 0 0 0 51.609-32.087c.911-.576 1.774-.241 2.637-.433 3.022-.672 5.949-1.583 8.586-3.261.191-.144.528-.239.624-.433 1.919-4.267 6.187-5.707 9.785-7.385 8.2-3.742 16.499-7.194 23.741-12.662 1.678-1.296 3.454-.816 4.701.143 1.15.911 2.063 2.494 1.582 4.366-.576 2.254-1.439 4.172-3.213 5.803-6.907 6.426-12.519 13.862-17.602 21.823-4.557 7.194-9.066 14.341-12.471 22.159-.671 1.583-1.774 2.831-2.926 4.124-4.796 5.468-10.503 9.688-17.075 12.758-1.44.672-2.064 1.679-2.159 3.166-.096 1.2-.481 2.35-.576 3.548-.192 3.07-1.2 5.707-3.79 7.627-.815.624-.911 1.63-1.2 2.493l-5.468 18.274c0 .143 0 .287-.048.385 0 .287.048.624-.335.767-.815.191-1.534-.048-2.254-.433-8.922-2.063-17.746-4.315-26.572-6.665-1.102-.241-2.159-.577-3.309-.72-1.774-.239-1.919-1.056-1.104-2.398 1.153-5.612 2.494-11.175 5.949-15.923.767-1.056.72-1.919.048-3.07-3.789-6.329-6.666-13.14-9.832-19.759zm-18.562 73.143a10.41 10.41 0 0 1-.72-.143c-.863-.241-1.15-.768-1.007-1.968a4997.514 4997.514 0 0 0 3.07-28.539c.048-.239.048-.43.096-.622.048-.096.096-.192.096-.289.143-.287.43-.382.767-.382.191 0 .479.048.768.143 12.901 3.405 25.756 6.812 38.658 10.216 12.901 3.405 25.804 6.764 38.705 10.169 1.248.335 1.631.719 1.2 2.014l-5.563 18.226c-.191.719-.335 1.487-1.15 1.487-.096 0-.241 0-.385-.048-6.907-.959-13.813-1.87-20.719-2.831-4.51-.624-8.97-1.246-13.478-1.869-13.383-1.918-26.86-3.74-40.338-5.564zm10.601 18.419c-.241-.72-.192-1.296 0-1.726.091-.28.203-.553.334-.816.048.096.048.192.096.289.097.621-.143 1.293-.43 2.253zm118.467 179.046v-.047c-.479.047-.528.334-.767.479a2.568 2.568 0 0 1-.385.287 7.56 7.56 0 0 1-.767.528c-.624.433-1.248.959-1.535 1.727 0 .143 0 .095-.048.191s0 .287-.048.287h.144v.287c-.481 1.391-.72 2.398-.959 3.118-.048.191-.144.335-.191.479-.048.144-.144.239-.192.335a1.025 1.025 0 0 1-.191.239c-.144.144-.287.192-.481.239h-.143c-.287 0-.576-.095-1.007-.239-.672-.239-1.535-.576-2.734-.959-.095-.047-.191-.047-.239-.095a.5.5 0 0 0-.239-.096c-.192-.096-.335-.144-.528-.239h-.192v-.192h-.048c-1.439-.479-2.78-.767-4.076-1.294-.768-.287-1.583-.528-2.398-.863-1.007-.241-2.014-.72-3.022-.72-2.783-.959-5.612-1.439-8.299-2.398-.239 0-.382.048-.863 0v.048c-1.919-.385-3.452-.863-5.276-1.2-1.776-.287-2.446-1.2-2.255-2.974.096-.72.048-1.583.048-2.303 0-.239-.048-.335-.048-.815-.287-.481-.72-1.055-1.102-1.679-.144-.191-.192-.334-.287-.528-.239-.239-.72-.479-.72-.767-.479-.096-.287-.192-.431-.287-1.488-1.392-1.056-3.261-.864-5.037 0-.191.048-.382.048-.576.048-.382.096-.767.144-1.102.048-.191.048-.385.095-.528.768-2.974.959-5.803-2.254-7.579-.385-.239-.624-.481-1.104-.816v.096c-1.439-1.15-3.022-2.35-4.507-3.309-.241-.479-.289-.576-.768-.767-2.398-1.296-4.318-2.783-6.188-4.557-.479-.287-1.006-.529-1.487-.815l.192-.001c-.287-.479-.624-.43-.863-.671-.385-.287-.72-.481-1.2-.768-2.399-2.063-5.66-3.981-8.251-6.331-.911-.287-1.487-1.007-2.207-1.583v-.095c-2.541-1.774-5.035-3.502-7.531-5.42h.048c-.287 0-.287-.241-.768-.481-1.439-.719-2.877-1.917-4.124-2.877-.385-.481-.767-.481-1.15-.481-1.15-.958-2.159-1.391-3.118-2.254-.385-.239-.719-.528-1.2-.816-2.877-1.774-5.563-3.452-7.914-5.754l-.239-.241c-.143-.143-.287-.334-.431-.479a3.654 3.654 0 0 1-.768-1.631v.385c-1.726-1.87-2.877-4.029-4.315-5.996l-.144-.287c-.048-.096-.096-.191-.096-.287-.048-.192-.048-.385-.048-.528.048-.385.241-.72.481-1.055 0-.096.048-.239.048-.385.479-3.07 2.159-5.85 3.357-8.729v-.719s0-.433-.048-.624c-.048-.144-.048-.192-.096-.287l-.096-.096a.743.743 0 0 0-.334-.191h-.144c-.287 0-.672.143-1.15.43-.399.246-.77.535-1.104.863-.143.096-.239.192-.382.287a2.603 2.603 0 0 0-.287.385c-.048.048-.096.144-.144.191 0 .048-.048 0-.048 0 0 .048-.048 0-.048 0v.048c-.958 1.104-2.398 2.063-3.646 3.07-.239.239-.671.528-.671.768v-.048h-.144c-.382.479-.911.479-1.439.239-2.063-.911-4.124-1.774-6.188-2.733-.479-.239-.719-.767-.815-1.248-.053-.207-.1-.415-.143-.624-.048-.191-.096-.335-.144-.528v.096c-.72-3.357.433-5.853 1.056-8.729.047-.241.095-.481.095-.72.481-2.783.672-5.755 1.487-8.442v-1.248h.009c-.438-3.067-.448-6.092-.68-9.162 0-.528.047-1.054.047-1.582-.287-5.709-.671-11.417-.863-17.124-.43-11.942-1.391-23.837-1.054-35.779.048-1.919-.335-3.551-.959-5.133a12.04 12.04 0 0 0-.528-1.153c-.576-1.102-1.248-2.157-1.968-3.261-1.054-1.487-1.439-2.926-.959-4.748.72-2.783 1.248-5.659 1.774-8.49.241-1.344.625-2.063 2.159-1.535.577.191 1.248.144 1.87.191 2.542.577 5.181.624 7.723 1.248.239 0 .334.048.671.192 2.255.095 4.844.43 7.242.959.241 0 .529.047.768.191 2.878.385 5.755.719 8.633 1.199.672 0 1.248-.048 1.87.335.096 0 .239-.048.239 0 3.357.385 5.996.624 8.873 1.102h-.287v.096c1.917.239 3.165.479 4.653.719 1.534.241 3.117.624 4.604.624h.048c.144 0 .239.048.335.048.096.048.433.096.433.096.958.048 1.343.576 1.487 1.391.767 4.557 1.391 9.114 2.35 13.669 0 .335.191.624.143.911.144.768.241 1.487.385 2.207.433 2.206.815 4.412 1.248 6.618 0 .191 0 .624.048.719v.192c.479 2.878 1.007 5.468 1.487 8.202v.911c-.911.958-1.774 2.111-2.589 3.213a32.06 32.06 0 0 0-3.405 5.996c-.624 1.487-1.392 3.022-2.016 4.509l-.095.048c-.481 1.535-1.248 3.022-1.968 4.461-.048 0-.095.096-.143.192-.096.191-.144.479-.239.624v.048a68.033 68.033 0 0 1-2.734 6.283c-.335.672-.72 1.343-1.104 2.014-.143.385-.479.767-.479 1.102-.481 1.822-.911 3.646-1.822 5.325-.287 1.583-.72 3.07-1.487 4.509-.576 2.878-1.535 5.276-2.59 7.866-.143.385-.382.719-.382 1.102 0 .048-.048.096-.048.144-.048.143-.096.382-.192.576-.047.191-.095.43-.191.624 0 .048-.048.143-.048.191-.239 4.94-.528 9.879-.767 14.821l.43.144c.624-1.248 1.248-2.446 1.87-3.694.624-1.198 1.104-2.446 1.774-3.694.385-.863 1.007-1.726 1.007-2.589 1.439-2.399 2.733-4.797 4.22-7.003.144-.239.433-.385.576-.863 1.248-1.919 2.685-4.462 4.172-6.666.517-.847 1.08-1.603 1.555-2.446h-.02c.335-.959.863-1.104 1.296-1.535.43-.433.672-.863 1.63-1.296 0 .385.096.72.048 1.055 0 .047-.048.143-.048.191 0 .191-.095.385-.143.576 0 .048-.048.144-.048.191-.048.144-.048.241-.096.385-.047.144-.047.239-.047.385 0 .143-.096.239-.048.385 0 .095-.043.191-.071.287h.071c-.433 2.878-.433 6.139-.481 9.16 0 .144-.095.385-.095.481l.095-.048c.385 2.877.863 5.755 1.248 8.633h-.048c.048 0 .096.624.096.864.479 2.878 1.102 5.802 1.439 8.729 0 .095.048.239.048.334.048.192.096.335.096.529.479 2.302 2.206 3.885 3.261 5.898.767 1.104 1.583 2.398 2.302 3.357h.048v.048c2.398 2.111 4.414 4.268 7.099 6.187.382 0 .767.481 1.15.481h-.048v.239c.959.096 1.774.863 2.783.576.191-.048.385-.143.528-.239.144-.096.335-.191.385-.335.239-.433-.191-.672-.528-.815-3.933-2.494-3.309-6.572-3.79-10.408h.144v-.048c.959.911 1.63 1.822 2.445 2.783.144.192.289.385.481.528.335.385.672.72 1.007 1.104a21.335 21.335 0 0 0 2.159 2.014c.767.624 1.582 1.296 2.493 1.774.385.144.768.481 1.104.481h-.096c2.877 1.391 5.372 2.734 8.009 4.124.576.096 1.104.287 1.583.72.959 2.877 2.111 5.755 1.822 9.112.096 0 .191.335.239.576.048.241 0 .433-.048.624a32.9 32.9 0 0 1-.047 8.395.88.88 0 0 1-.048.767c-.048.096 0 .144-.048.239h.048c0 2.783-.048 5.564-.768 8.299-.047 2.733-.911 5.372-1.2 8.105 0 .096-.048.191-.095.335-.144.528-.385 1.15.767 1.007v-.048c2.591-2.685 5.181-5.325 7.579-8.347v.192c.048-.959.624-1.44 1.15-1.919 1.007-.959 2.016-2.589 3.022-3.981 1.007-1.391 2.016-2.734 3.022-4.124 0-.096.048-.144.048-.239.143-.481.335-.768.576-.911.096-.048.191-.096.287-.096h.287a2.65 2.65 0 0 1 1.007.385c.528.287 1.054.624 1.535.959 2.877 1.582 6.14 2.637 8.296 5.372.239.239.529.287.768.767 1.006.481 1.917 1.583 2.637 2.639.239.239.528.479.767.719.048.048.096.048.144.096 3.789 3.213 4.077 4.939 1.344 9.209-.096.144-.241.287-.335.287a4.733 4.733 0 0 1-.481 1.104c-.095.239-.239.479-.382.719-.048.096-.144.241-.192.335-.719 1.15-1.487 2.35-1.774 3.694-.239 1.102-.433 2.255-.239 3.357a76.061 76.061 0 0 1 1.391 5.707c.239 1.15.481 2.302.576 3.5.378 2.84-.964 4.567-3.364 5.766zm12.76 23.358c-.624.768-.719 2.35-1.726 2.207h-.096c-.095 0-.191.048-.287 0-1.822-.239-3.741-.672-5.324-1.726-.576-.385-.433-1.104-.433-1.776v-9.066c0-.624.241-1.342-.382-1.774-2.111-1.343-1.583-3.646-2.111-5.563-.192-.768.334-1.15.767-1.631 1.87-2.063 3.694-4.124 5.564-6.187 1.248-1.344 1.774-2.831.863-4.462-1.727-3.261-1.44-6.379-.048-9.688 1.102-2.589 1.822-5.324 2.829-8.394.096.096.192.239.289.335v-.003c1.87 2.349 3.741 4.368 4.987 6.718 3.022 5.803 7.481 10.025 13.238 13.093 2.685 1.44 5.106 3.427 8.271 3.81l.049.008c.14 0 .231-.027.37-.028.335-.001.805-.044.711.479-.048.287-.335.287-.624.241h-.143c-.096 0-.192 0-.287-.048-3.341.096-6.608.649-9.85 1.341-1.702.357-3.396.757-5.087 1.154-1.527.353-3.053.7-4.585 1.006-.098.021-.194.05-.287.087l-.048.009c-.671.143-.958.479-.863 1.15.096.815.385 1.248 1.344 1.439 1.714.316 3.5.367 5.222.331l.246.004a50.037 50.037 0 0 0 7.05-.672 48.541 48.541 0 0 1 7.866-.624c2.542 0 5.086.192 7.675.577-8.586 1.391-15.684 6.235-23.454 9.496-4.029 1.679-7.147 4.892-10.984 6.955-.291.339-.435.866-.722 1.202zm24.844 6.331c0 .048-.048.048-.048.096-.048.048-.096.048-.143.048-.048 0-.144-.048-.192-.048a.585.585 0 0 1-.239-.239c-5.611-1.392-11.271-2.783-17.219-4.268 1.968-1.583 3.405-2.494 5.803-1.583 3.933 1.535 7.579 3.694 11.366 5.468.192 0 .433.048.576.191.096.048.096.096.096.239v.096zm16.932 18.37c-.911 1.535-2.302 2.639-3.694 3.694-2.783 2.111-5.803 3.694-9.64 4.844 1.391-4.318 2.542-8.296 4.892-11.703 1.535-2.207 5.229-2.783 7.531-1.487 1.534.863 1.966 2.926.911 4.652zm22.35-25.516c-4.412 3.548-8.777 7.146-12.901 11.031-1.007.959-1.774 1.007-2.927.287-7.05-4.172-14.388-7.674-21.919-10.888-3.309-1.391-6.812-1.965-10.216-3.165.385-.72 1.102-.72 1.678-.911 7.338-2.733 14.821-5.181 22.015-8.394 1.87-.864 3.742-.144 5.564.095 2.735.385 5.372.433 7.866-.911.43-.239.911-.43 1.439-.191 5.564 2.302 11.127 4.605 16.882 6.955a419.982 419.982 0 0 1-7.481 6.092zm34.342-24.366c-2.302 2.975-2.685 6.332-1.535 9.785 1.344 4.124.385 6.955-3.644 8.968-.913.481-1.631.768-2.399.72-.576.048-1.102-.096-1.774-.576-7.481-5.181-16.403-6.907-24.798-9.879-1.199-.433-2.35-.864-3.598-1.15-1.439-.335-1.343-1.296-1.15-2.303.144-.72.528-.815.911-.767.385-.096.911.191 1.248.287 9.592 2.398 19.28 4.315 28.538 7.913.334.144.622.192.863.241.671-.096.863-.72.767-1.631-.191-2.159-.385-4.268-2.877-5.42-6.188-2.879-12.758-4.124-19.474-4.653-.99-.087-1.981-.15-2.974-.191 4.748-2.877 9.977-4.413 14.245-8.105a19.963 19.963 0 0 0 1.487-1.344l7.961-9.64c.335-.528.624-1.054.959-1.582a.978.978 0 0 1 .239.143l.144-.143c.767.43.815 1.006 1.007 1.486 2.014 4.94 3.98 9.93 5.996 14.869.481 1.103.578 2.061-.142 2.972zM420.236 195.12c.13.137.228.301.287.481a.46.46 0 0 1-.048.43.822.822 0 0 1-.287.287c-.096.144-.144.191-.192.287l-.047.048c-.048.048-.048.096-.096.191 0 .048-.048.096-.048.096h.048v.143c-2.879 2.927-2.111 5.66.191 8.299.144.239.287.479.287.72 1.919 2.541.335 5.083 0 7.625-.047.241-.095.335-.287.433-.048 0-.095.048-.143.048-.192 0-.385-.048-.576-.096-.048 0-.144-.048-.192-.048a193.118 193.118 0 0 1-5.035-1.535c-.143 0-.239-.095-.385-.143-.143 0-.239-.144-.382-.144-.768 0-1.631-.048-2.351-.382-2.157-.911-4.124-.624-5.85 1.006a1.147 1.147 0 0 1-.096.385c.815 1.2 2.159 1.487 3.357 1.87 4.892 1.583 9.066 4.605 13.573 6.955 1.055.576 1.248 1.822 1.15 3.022-.048.672-.239 1.343-.382 2.063l-1.44 6.187c0 .529-.048 1.055-.385 1.535.048 3.357-2.302 5.852-3.404 8.73-.144.239-.239.334-.385.815a64.609 64.609 0 0 1-2.589 5.947c0 .144-.192.335-.241.481v-.096c0 .048-.047.048-.047.096 0 .047-.048.095-.096.191-.048.048-.048.096-.096.143-.239.911-.382 1.87-1.15 2.639-.767 3.07-2.255 5.85-3.742 8.633-.143.239-.239.239-.334.72-1.248 2.877-2.542 6.331-3.79 9.496-.287 1.15-.528 2.303-.815 3.405l-.144.287c0 .048-.048.048-.048.096 0 .095-.095.191-.143.287-.048 1.487-.144 2.637-.72 3.837-.239.768-.431 1.631-.672 2.398 0 .096-.047.239-.095.385-1.344 6.092-2.685 12.184-4.029 18.226-1.102 4.987-1.535 10.072-2.35 15.06-.768 4.7-.959 9.544-2.111 14.149-.815 3.357-2.734 6.474-4.268 9.592-1.439 2.926-2.35 6.044-4.124 8.873l-.144.287c-.101.2-.181.409-.239.624-.048.095-.048.239-.096.335-.048.239-.095.43-.143.671-.048.241-.048.481-.048.72s0 .479-.048.72v.719c0 .481 0 .959-.048 1.439-.382 5.134-1.054 10.265-.815 15.445.048.959-.239 1.487-1.15 1.822l-1.153.433c-.767.287-1.534.624-2.254.959-.385.143-.815.335-1.2.479-.624.239-1.007.433-1.968.672v-.096s-.143.096-.239.096c-.863.385-1.774.767-2.637 1.102-.624.239-1.248.529-1.87.768-1.296.911-2.734 1.439-4.22 1.822l-.719.43c-3.023 1.344-6.188 2.733-9.067 4.077 0 .048-.287.143-.382.143-1.631.481-3.309 1.44-4.94 2.207-1.774.767-3.5 1.487-5.276 2.255-2.783 1.245-5.564 2.398-8.347 3.644-.095.048-.239 0-.335 0-2.541.959-5.181 2.351-7.579 3.454-.958.528-2.35 1.055-3.548 1.535-2.206.863-2.685.767-3.165-1.487-1.44-1.055-1.583-2.831-2.111-4.318-.529-1.439-.959-3.022-1.44-4.461-.095-.479-.335-.385-.335-.672-.479-.672-.479-1.296-.719-1.965 0-.096-.048-.241-.048-.335-.143-.096-.143-.239-.191-.385-.048-.096-.096-.239-.144-.335h.096c-.672-2.014-1.392-3.981-1.87-5.996-.479-1.344-1.344-2.637-1.583-4.029a3.43 3.43 0 0 1 0-1.391c.048-.239.096-.433.144-.672.048-.096.048-.239.095-.335.385-.958 1.007-1.869 1.488-2.78.334-.768.622-1.535.958-2.303.335-.767.624-1.343.959-2.302.768-1.439 1.248-3.118 2.207-4.796 0-.385.287-.768.385-1.152.863-2.926 1.822-5.898 2.974-8.729 0-.095-.096-.239-.048-.335.335-1.726 1.965-2.35 2.926-3.357v.048c.481-.143.72-.43.959-.43.287-.481.576-.672.863-.959.528-.624 1.007-1.296 1.487-1.965.241-.335.481-.672.672-1.007.911-1.344 1.726-2.733 2.733-4.077.335-.43.624-1.102 1.15-1.102.096 0 .144 0 .239.048.768.191.529 1.102.433 1.678-.479 2.207-.335 4.366 0 6.523.239 1.678.528 3.356.672 5.035 0 .239-.048.528-.048.767.479 1.248.672 2.494.72 3.79.382 1.63.719 3.213 1.2 4.844 1.439 2.974 2.493 5.996 3.452 9.066l.096-.048c1.631 2.398 3.261 5.181 4.892 7.818.479.624 1.006 1.296 1.487 1.774h.095v.385c.481 0 .72 1.055 1.44.096-.144-.481-.241-.481-.385-.481a9.09 9.09 0 0 1-.624-1.583c-.096-.334-.239-.719-.287-1.006a7.595 7.595 0 0 1-.239-1.007c-.048-.143-.048-.335-.096-.479a5.773 5.773 0 0 0-.191-.959c-.096-.479-.144-.959-.239-1.487-.096-.479-.144-1.007-.241-1.487-.143-.144-.143-.335-.143-.528a2.773 2.773 0 0 0-.192-.577c-.047-.576-.143-1.15-.239-1.726l-.43-3.452c-.048-.576-.241-1.152-.287-1.727-.672-6.283-.241-12.566.719-18.801h.287c.576-2.879 1.15-6.188 1.726-9.306.144 0 .287.048.481.048-.192 5.229.335 10.408 1.487 15.493.048.096.048.239.048.335.719 1.965 1.487 3.933 2.111 5.947.143.433.287.863.43 1.248.144.385.335.815.576 1.15.144.239.335.481.529.72.143.239.43.479.43.719.481.385.72.816 1.104 1.201.287.334.528.719.815 1.054 1.007.959 2.063 1.87 3.309 3.118a72.08 72.08 0 0 1-.335-2.783c-.095-.863-.239-1.726-.335-2.685 0 0-.239-.144-.239-.239 0-.72-.096-1.44-.191-2.159-.287-2.207-.529-4.414-.816-6.572 0-.191 0-.334.048-.528 0-.191.048-.528.048-.528-.385-2.879-.431-5.516-.385-8.299 0-.095-.047-.239-.047-.335a1.864 1.864 0 0 1-.144-.671c-.385-2.255-.191-4.509.096-6.716.095-.672.048-1.391.095-2.063 0-.144-.047-.239-.047-.385 0-3.165.143-6.379 1.102-9.449 0-.095.048-.335.048-.335.239-1.439.479-3.165.719-4.748.241-1.583.481-3.213.672-4.796.096-.672.287-1.007.672-1.007.191 0 .479.096.815.335.335.192.672.433 1.007.624a26.59 26.59 0 0 1 1.487.959c.479.335.959.672 1.391 1.102.048.048.096.096.192.144.095.096.335.239.335.239h.095v-.048c3.357 1.679 5.229 4.509 7.481 7.147.433.287.72.576 1.056.958.528.577.863 1.296 1.15 2.064a21.618 21.618 0 0 1 3.357 6.426c.048.192.144.433.192.624.047.192.143.096.191.576.385.481.624 1.104.863 1.679.239.576.433 1.15.672 1.678.143.287.239.528.385.816.095.191.191.334.334.479.192.239.433.385.816.479.528-1.774-.72-3.452-.241-5.133h.144c0-.479-.144-.479-.144-.719-.479-3.118-.863-6.188-2.157-9.066-.048-.239-.048-.768-.048-.768-1.15-2.878-1.727-5.803-3.405-8.346-.385-.287-.624-.768-.72-1.248-.528-.479-.815-1.054-1.102-1.63-.239-.385-.479-.768-.767-1.248v.334c0-.047-.096-.095-.096-.143v-.048c-1.296-1.965-2.879-3.789-4.413-5.563l-.192-.192c-.191-.191-.382-.191-.576-.672-1.15-.479-2.254-1.917-3.405-2.926-.143-.143-.287-.191-.382-.335-.096-.096 0-.191-.481-.335-2.398-1.63-4.172-3.646-6.283-5.083-.385-.479-.863-.191-1.054-.959 6.187-.382 12.181.335 18.417.72v-.239h.047c3.07.479 5.949 1.054 8.73 2.254.095 0 .191.144.334.144v.095c1.919.433 3.742 1.296 5.564 2.159.385.192.863.816 1.296.239.335-.479-.192-.911-.481-1.294-.719-1.007-1.391-2.016-2.159-3.022-.143-.239-.382-.481-.382-.72-1.44-1.391-2.542-2.974-3.79-4.363-.382-.385-.815-.816-1.198-1.296-1.439-.959-2.926-2.063-4.172-3.405-.239-.143-.479-.43-.72-.43-.624 0-1.294-.672-1.917-1.104-.624-.43-1.296-.815-1.919-1.248-.239-.143-.479-.239-.719-.382-2.927-1.104-5.852-2.111-8.779-3.214-.095 0-.286-.048-.286-.095 0-.001-.241 0-.335-.048-.624-.048-1.104-.239-1.44-.576a1.593 1.593 0 0 1-.528-.72c-.048-.048-.048-.143-.096-.239a2.73 2.73 0 0 1-.143-1.248c.096-1.487 0-2.974-.239-4.413-.048-.433-.144-.816-.239-1.248-.091-.401-.187-.8-.289-1.2a57.145 57.145 0 0 1-.287-1.248 43.36 43.36 0 0 0-.479-1.774s-.191-.048-.191-.192c-.481-2.926-1.631-5.85-2.494-8.729-.144-.382-.192-.672-.335-1.15-.767-1.439-1.102-2.255-1.15-3.357 0-.385 0-.72.048-1.102 0-.192.047-.385.047-.528.096-.529.192-1.104.385-1.631.192-.72.433-1.439.672-2.159 0-.096 0-.335.048-.335h-.048c.624-3.405 1.968-6.283 2.926-9.353 0-.048.096-.048.096-.096l.191-.191c.048-.048.096-.048.096-.096.911-1.248 1.15-2.493 1.054-3.692a6.495 6.495 0 0 0-.528-2.064c-.335-.863-.767-1.678-1.199-2.541-.048-.096-.191-.191-.287-.239-.048-.048-.095-.096-.095-.144-1.87-1.965-3.07-4.557-4.174-7.098-.095-.241-.239-.529-.334-.768-.096-.096-.096-.191-.144-.335 0-.048-.048-.095-.048-.143a2.41 2.41 0 0 1-.143-.335l.047.048c0-.048 0-.048-.047-.096.047-.287.143-.576.239-.863.096-.191.191-.335.287-.528.096-.144.239-.287.385-.433.047-.048.143-.096.191-.143 1.296-1.87 2.494-3.838 3.933-5.66 1.198-1.583 1.583-3.069 1.007-5.035-.816-2.733-.72-2.783 2.014-3.79.479-.191 6.283-2.398 8.633-3.117.385-.144 1.344-.528 1.487-.576.144-.048.241-.096.385-.144.385-.143.768-.287 1.102-.431 3.022-1.153 6.045-2.255 9.067-3.357.095-.048.239-.048.334-.048 2.831-1.439 5.852-2.35 8.825-3.357.385-.144.72-.287 1.2-.385.481-.382 1.919-.719 2.398-1.102 2.398-.768 4.318-1.87 6.475-2.35 3.165-2.398 5.755-1.392 7.914 1.582.287.192.576.385.863.624.43.385.576.816 1.054 1.296 1.952 2.253 4.11 4.457 6.173 6.664zm-67.437 2.637a5.673 5.673 0 0 1-.768.192c-.719.095-1.102-.241-1.582-1.104a2280.946 2280.946 0 0 0-13.238-23.502c-.576-1.007-.768-1.535.671-1.919 28.346-8.296 56.645-16.595 84.991-24.892.287-.096.624-.144 1.2-.287v.096c.013-.007.031-.008.045-.013-.43 5.118-.862 9.953-1.244 14.785l-.863 10.695c-.096 1.296-.479 2.111-1.87 2.59a12596.522 12596.522 0 0 0-67.342 23.359z" style="" fill="#212121" data-original="#1a1a1a" class="" opacity="1"></path><path d="M180.66 435.704c-1.344-.529-2.831-.624-3.454 1.15-.385 1.007-1.054.863-1.822.767-5.133-.767-9.64.768-13.286 4.366-7.579 7.385-11.464 16.26-11.031 27.05.287 7.147 4.412 10.6 11.366 9.016 13.764-3.213 24.461-16.69 25.037-31.607.145-3.836-3.358-9.4-6.81-10.742zm-1.92 15.587c-.72 5.852-3.118 11.847-8.442 16.356-1.87 1.583-4.029 2.542-6.475 2.783-3.02.239-5.324-1.631-5.035-4.653.576-6.283 2.302-12.229 6.475-17.171 2.685-3.213 6.716-4.077 10.6-2.542 2.205.864 2.973 1.966 2.877 5.227zM232.076 469.086c-.672-.624-1.104-1.343-1.248-2.254-.529-2.591-.096-5.133.335-7.675.767-4.892 2.302-9.688 2.063-14.725-.096-1.968-.385-3.79-2.398-4.749-2.159-1.054-3.742.096-5.229 1.44-2.877 2.637-5.372 5.659-7.818 8.681-2.446 3.022-4.892 6.092-7.338 9.114-.385.479-.815 1.391-1.583 1.006-.622-.287-.382-1.102-.287-1.726.192-2.206.481-4.363.72-6.57.287-2.879.672-5.755.191-8.633-.624-3.454-3.117-4.414-5.898-2.255-.672.528-1.296 1.2-1.87 1.822-2.254 2.542-4.124 5.372-5.947 8.251-4.509 6.955-8.634 14.197-14.054 20.528-1.006 1.199-2.063 2.35-2.974 3.646-.959 1.439-1.344 3.069-.433 4.604.816 1.344 2.207 1.822 3.742 1.727 1.631-.096 2.494-1.296 3.357-2.446 4.172-5.66 8.345-11.368 12.519-17.028.239-.287.335-.863 1.054-.672a33.971 33.971 0 0 0-.239 2.207c-.191 2.733-.768 5.468-.191 8.25.671 3.165 3.165 4.461 6.09 3.022 1.535-.768 2.831-1.87 4.077-3.022a73.063 73.063 0 0 0 6.618-7.242c2.255-2.879 4.557-5.803 6.955-8.922.72 2.398.433 4.557.335 6.716-.239 3.742-.959 7.481-.239 11.271.479 2.35 1.822 3.741 3.741 3.885 1.968.143 3.885-.287 5.564-1.392 2.496-1.583 2.735-4.749.385-6.859zM213.274 305.484c7.961.671 15.827 2.254 23.741 3.357 1.056.143 2.111.191 3.118.719 2.398 1.248 3.598 3.454 4.509 5.803 1.391 3.598 1.822 7.433 2.063 11.271.192 3.022-.43 5.563-2.877 7.579-1.822 1.487-3.309 3.213-3.981 5.563 3.07 0 5.707.528 7.722 3.118 1.248 1.63 2.879 2.974 4.462 4.363 3.692 3.311 9.111 2.542 11.703-1.63 1.15-1.87 2.254-3.79 3.5-5.612 1.726-2.541 3.405-5.276 6.475-6.379 1.87-.622 1.054-1.534.43-2.302-1.248-1.583-3.548-1.631-5.611-.385-3.166 1.919-5.325 4.749-7.627 7.484-.672.815-1.343 1.63-2.254 2.302-1.153.815-2.159.863-3.166-.191-1.15-1.152-2.302-2.351-3.548-3.357-1.056-.863-1.248-1.631-.624-2.879 1.343-2.589 1.917-5.372 1.63-8.248-.576-6.236-1.582-12.375-5.996-17.315-.479-.528-.479-.815.192-1.296 4.892-3.405 7.481-8.105 8.153-14.006.143-1.486-.144-2.685-1.344-3.117-1.199-.385-1.965.815-2.494 1.774-1.2 2.063-2.734 3.933-4.124 5.852-2.159 2.926-5.181 3.548-8.345 3.069-11.414-1.774-22.831-2.926-34.343-3.598-.576-.047-1.15-.191-1.63.192-3.646 2.685-7.338 5.276-9.64 9.353.143.048.287.143.382.143.385-.048.72-.143 1.104-.191 5.949-1.485 12.137-1.964 18.42-1.436z" style="" fill="#212121" data-original="#1a1a1a" class="" opacity="1"></path><path d="M280.519 348.699c-.385-.672-.863-.816-1.535-.433-3.789 2.111-8.057 2.207-12.229 2.734-1.774.239-3.981-.287-5.277 1.007-3.165 3.117-5.85 1.822-8.633-.385-.144-.096-.287-.239-.481-.287-4.124-2.207-8.248-3.022-12.47-.096-1.583 1.104-3.454 1.774-5.325 1.344-1.487-.385-2.637-.287-3.789.767-.576.528-1.344.959-2.014 1.392-1.87 1.248-1.87 1.439-.144 2.829.385.335.863.481 1.343.624 3.981 1.2 7.723.335 11.223-1.583 3.646-1.965 7.051-1.869 10.36.624 3.022 2.255 6.235 2.303 9.592.911 4.22-1.774 8.49-3.5 13.047-4.267.672-.096 1.344-.335 1.968.191 1.917 1.774 3.741.528 5.563-.191.72-.289.816-.864.768-1.583-.145-1.536-1.296-2.399-1.967-3.598zM392.753 446.591a7.715 7.715 0 0 1-1.392 2.637c-2.589 3.213-5.85 5.372-9.929 7.051.481-3.118 1.007-5.901 2.207-8.49 1.248-2.685 3.261-4.462 6.283-4.749 2.35-.19 3.501 1.297 2.831 3.551zm1.874 14.104c-1.776-2.403-1.87-2.403.522-4.033 5.036-3.448 6.813-8.349 6.426-14.2-.282-4.357-2.633-6.907-6.76-7.576-3.406-.575-6.144.867-8.683 2.884-.575.428-.909.951-1.87.334-2.111-1.442-4.127-1.055-5.893.763-1.014 1.055-1.735 2.309-2.069 3.741-2.497 10.073-5.036 20.093-7.429 30.218-.815 3.354.961 5.089 4.462 4.556 3.156-.481 4.744-2.299 5.277-6.374.522-3.939 1.045-7.826 2.205-11.901 2.967 3.741 5.799 7.241 8.631 10.742a46.344 46.344 0 0 0 2.664 3.009 249.535 249.535 0 0 0 8.349-5.486c-2.175-2.027-4.056-4.305-5.832-6.677zM319.897 309.944a124.626 124.626 0 0 0-8.299 4.461c-.719.433-1.391.815-2.254.959-4.748.863-9.545 1.487-14.436 1.487-2.831 0-5.133-1.198-7.338-2.589-1.344-.864-2.685-2.111-2.926-4.029.719-.239 1.391.048 2.063.143 2.541.335 5.035 1.248 7.625 1.104 6.236-.385 12.086-2.255 17.939-4.268 1.919-.672 3.79-1.391 5.659-2.063.863-.287 1.104-.576.335-1.392-.911-1.006-1.917-.815-2.926-.671-12.519 1.917-24.941 1.343-37.362-.911-3.599-.672-7.435-.911-8.825-5.373-.385-1.198-.768-2.398-1.007-3.644-.239-1.392-1.054-2.399-1.87-3.405-.479-.624-1.102-.911-1.822-.768-.767.192-.719 1.007-.719 1.583.048 2.014.143 4.029.385 6.044.239 2.207.958 4.366 2.254 6.14 2.494 3.5 5.947 5.659 10.168 6.666 3.118.719 3.118.767 3.405 3.98.144 1.392.335 2.639 1.631 3.405 2.254 1.344 4.509 2.733 7.242 2.926 1.678.144 3.404.241 4.844 1.344 1.87 1.439 4.124 1.774 6.379 1.968 1.678.143 3.404.191 5.083.479 1.343.239 2.254-.191 3.213-1.007 4.748-3.933 9.449-7.914 13.91-12.327-.529-.578-1.297-.769-2.351-.242zM263.108 361.216c-4.748.144-9.592.911-14.054 2.446-3.692 1.248-7.818 2.111-9.735 6.379-1.104 2.494-.959 5.133-1.727 7.627.335 1.965.335 3.933 1.487 5.611.335.481.481 1.248 1.296 1.2.863-.048 1.15-.767 1.392-1.343.863-1.822 1.054-3.885 1.63-5.803.911-3.118 2.35-5.612 5.611-7.003 3.405-1.439 6.86-2.783 10.312-4.124.672-.239 1.344-.385 2.016-.239 4.268.622 8.729.43 12.518 2.926.335.239.768.335 1.248.239 1.439-.335 1.583-.815.72-1.965-3.121-4.319-7.678-6.094-12.714-5.951zM229.725 317.666c2.879-.287 5.755-.671 8.586-1.054.767-.096 1.965.191 2.159-.72.191-.959-.911-1.535-1.583-2.159-.335-.335-.911-.382-1.391-.528-2.879-1.054-5.803-.815-8.729-.287-5.901 1.102-11.847 1.439-17.748 0-1.582-.385-3.261-.385-5.181-.624-2.206.529-4.7 1.055-7.05 2.111-1.631.768-1.727 1.679-.287 2.783.863.672 1.726 1.007 2.78.624 3.694-1.344 6.86-.624 9.882 1.919 3.022 2.541 6.57 3.07 10.455 1.726 2.111-.72 3.933-1.919 5.852-2.974.72-.385 1.44-.721 2.255-.817zM178.405 323.039c.144-2.685-.385-4.989-2.541-6.379-1.583-1.007-2.207-2.398-2.783-4.029-.768-2.111-.959-4.461-2.685-6.14-.481-.479-.816-1.535-1.679-1.198-1.006.385-1.965.959-2.254 2.303-.959 4.461 1.102 8.729 5.563 11.031 2.016 1.055 3.551 2.542 4.509 4.605.335.72.385 2.111 1.44 1.87 1.054-.241.191-1.536.43-2.063z" style="" fill="#212121" data-original="#1a1a1a" class="" opacity="1"></path><path d="M88.329 219.438c0-.096-.048-.192-.095-.289-.096.241-.241.529-.335.816-.144.479-.192 1.006 0 1.726.335-.959.575-1.63.43-2.253" style="" fill="#2e2e2e" data-original="#2e2e2e" class=""></path></g></svg>