<svg width="57" height="64" viewBox="0 0 57 64" fill="none" xmlns="http://www.w3.org/2000/svg">
<path d="M51.8757 57.128L57 0H0L0.0669699 0.74133L5.11631 57.136L5.15917 57.6053L28.2844 64H28.6487L51.8274 57.6L51.8703 57.1307L51.8757 57.128ZM28.5496 12.4773H45.1119L44.6137 18.2373L28.2737 25.4693L28.5469 26.7707H43.8797L42.1145 46.9067L28.4906 50.6667L14.8721 46.912L14.0149 37.2693H19.6215L20.0715 42.1573L20.1143 42.632L28.3781 44.8187H28.7344L36.9071 42.5573L36.9473 42.0853L37.7187 33.056L37.7803 32.32H13.5462L13.0372 26.5253L29.9371 19.3227L29.6693 18.016H12.3113L11.8157 12.4693H28.5308L28.5496 12.4773Z" fill="#0092FF"/>
</svg>
